G04*
G04 #@! TF.GenerationSoftware,Altium Limited,Altium Designer,21.9.2 (33)*
G04*
G04 Layer_Color=8388736*
%FSLAX25Y25*%
%MOIN*%
G70*
G04*
G04 #@! TF.SameCoordinates,4219B8C6-809A-426F-B61B-8FBD35EC1222*
G04*
G04*
G04 #@! TF.FilePolarity,Negative*
G04*
G01*
G75*
%ADD33R,0.06509X0.10642*%
%ADD34R,0.06706X0.10642*%
%ADD35R,0.03950X0.08280*%
%ADD36R,0.04737X0.05131*%
%ADD37C,0.05000*%
%ADD38R,0.03950X0.03950*%
%ADD39R,0.03950X0.07493*%
%ADD40R,0.07493X0.03950*%
%ADD41R,0.07099X0.04737*%
%ADD42R,0.05918X0.05918*%
%ADD43R,0.06706X0.02572*%
%ADD44R,0.05131X0.04737*%
%ADD45R,0.04343X0.03556*%
%ADD46R,0.05131X0.03359*%
%ADD47R,0.03556X0.04343*%
%ADD48O,0.03950X0.01587*%
%ADD49O,0.01587X0.03950*%
%ADD50R,0.11036X0.11036*%
%ADD51R,0.03359X0.05131*%
%ADD52C,0.06706*%
%ADD53R,0.06706X0.06706*%
%ADD54R,0.06706X0.06706*%
%ADD55C,0.04737*%
%ADD56O,0.07493X0.07887*%
%ADD57C,0.06902*%
%ADD58C,0.03000*%
%ADD59C,0.03800*%
%ADD60C,0.05800*%
%ADD61C,0.02769*%
D33*
X136596Y-49138D02*
D03*
X136549Y-82138D02*
D03*
X386886Y-78138D02*
D03*
X386933Y-45138D02*
D03*
X260386Y-81138D02*
D03*
X260433Y-48138D02*
D03*
D34*
X82096Y-49138D02*
D03*
X81596Y-82138D02*
D03*
X331933Y-78138D02*
D03*
X332433Y-45138D02*
D03*
X205433Y-81138D02*
D03*
X205933Y-48138D02*
D03*
D35*
X90584Y-72690D02*
D03*
X94915D02*
D03*
X99246D02*
D03*
X103576D02*
D03*
X107907D02*
D03*
X112238D02*
D03*
X116569D02*
D03*
X120899D02*
D03*
X371236Y-68690D02*
D03*
X366905D02*
D03*
X362575D02*
D03*
X358244D02*
D03*
X353913D02*
D03*
X349583D02*
D03*
X345252D02*
D03*
X340921D02*
D03*
X244736Y-71690D02*
D03*
X240406D02*
D03*
X236075D02*
D03*
X231744D02*
D03*
X227413D02*
D03*
X223083D02*
D03*
X218752D02*
D03*
X214421D02*
D03*
D36*
X374933Y-136985D02*
D03*
Y-130292D02*
D03*
X368433Y-137185D02*
D03*
Y-130492D02*
D03*
X84233Y20308D02*
D03*
Y13615D02*
D03*
X455433Y-112792D02*
D03*
Y-119485D02*
D03*
X301933Y-106485D02*
D03*
Y-99792D02*
D03*
X183996Y9208D02*
D03*
Y2515D02*
D03*
X420933Y-104485D02*
D03*
Y-97792D02*
D03*
D37*
X468833Y-142201D02*
D03*
Y20362D02*
D03*
X-1Y-1D02*
D03*
X-14667Y-136638D02*
D03*
D38*
X97581Y20362D02*
D03*
X91085D02*
D03*
X90885Y12462D02*
D03*
X97381D02*
D03*
X-2315Y-73038D02*
D03*
X4181D02*
D03*
X198181Y14362D02*
D03*
X191685D02*
D03*
X323048Y14262D02*
D03*
X329544D02*
D03*
D39*
X232803Y-29538D02*
D03*
X246189D02*
D03*
X373089Y-26638D02*
D03*
X359703D02*
D03*
D40*
X76996Y-71731D02*
D03*
Y-58346D02*
D03*
D41*
X102996Y-27638D02*
D03*
X122996D02*
D03*
D42*
X62933Y1862D02*
D03*
X70807D02*
D03*
X62933Y9736D02*
D03*
X70807D02*
D03*
D43*
X401433Y-65875D02*
D03*
Y-63316D02*
D03*
Y-60757D02*
D03*
Y-58197D02*
D03*
Y-55638D02*
D03*
X273933Y-69875D02*
D03*
Y-67316D02*
D03*
Y-64757D02*
D03*
Y-62198D02*
D03*
Y-59638D02*
D03*
D44*
X94842Y6362D02*
D03*
X88150D02*
D03*
X162843Y-129575D02*
D03*
X156150D02*
D03*
X413050Y-125338D02*
D03*
X419742D02*
D03*
X456779Y-125638D02*
D03*
X450087D02*
D03*
Y-130638D02*
D03*
X456779D02*
D03*
X447342Y-106838D02*
D03*
X440650D02*
D03*
X440150Y-99038D02*
D03*
X446842D02*
D03*
X434279Y-99638D02*
D03*
X427587D02*
D03*
X427587Y-105138D02*
D03*
X434279D02*
D03*
X416250Y-130938D02*
D03*
X422942D02*
D03*
X338950Y13862D02*
D03*
X345642D02*
D03*
D45*
X67555Y-9138D02*
D03*
X62437D02*
D03*
X190055Y-122075D02*
D03*
X184937D02*
D03*
X441374Y-93638D02*
D03*
X446492D02*
D03*
X432492Y-93138D02*
D03*
X427374D02*
D03*
X156937Y-122138D02*
D03*
X162055D02*
D03*
X184937Y-130075D02*
D03*
X190055D02*
D03*
D46*
X178720Y-122335D02*
D03*
Y-129816D02*
D03*
X169272D02*
D03*
Y-126075D02*
D03*
Y-122335D02*
D03*
D47*
X449433Y-114579D02*
D03*
Y-119697D02*
D03*
X301933Y-136197D02*
D03*
Y-131079D02*
D03*
X309933Y-101079D02*
D03*
Y-106198D02*
D03*
Y-136197D02*
D03*
Y-131079D02*
D03*
D48*
X442307Y-126363D02*
D03*
Y-124788D02*
D03*
Y-123213D02*
D03*
Y-121638D02*
D03*
Y-120064D02*
D03*
Y-118489D02*
D03*
Y-116914D02*
D03*
X426559D02*
D03*
Y-118489D02*
D03*
Y-120064D02*
D03*
Y-121638D02*
D03*
Y-123213D02*
D03*
Y-124788D02*
D03*
Y-126363D02*
D03*
D49*
X439157Y-113764D02*
D03*
X437583D02*
D03*
X436008D02*
D03*
X434433D02*
D03*
X432858D02*
D03*
X431283D02*
D03*
X429709D02*
D03*
Y-129513D02*
D03*
X431283D02*
D03*
X432858D02*
D03*
X434433D02*
D03*
X436008D02*
D03*
X437583D02*
D03*
X439157D02*
D03*
D50*
X434433Y-121638D02*
D03*
D51*
X309579Y-122847D02*
D03*
X302098D02*
D03*
Y-113398D02*
D03*
X305839D02*
D03*
X309579D02*
D03*
D52*
X6733Y-139538D02*
D03*
X16733D02*
D03*
X26733D02*
D03*
X36733D02*
D03*
X46733D02*
D03*
X-15067Y-13638D02*
D03*
Y-3638D02*
D03*
Y6362D02*
D03*
Y16362D02*
D03*
X165496Y19862D02*
D03*
Y9862D02*
D03*
X155496Y19862D02*
D03*
Y9862D02*
D03*
X145496Y19862D02*
D03*
X-15004Y-54638D02*
D03*
X19433Y19862D02*
D03*
X29433D02*
D03*
X39433D02*
D03*
X437933Y21862D02*
D03*
X447933D02*
D03*
X338996Y-137638D02*
D03*
X346807D02*
D03*
X409233Y-136738D02*
D03*
X401422D02*
D03*
X468433Y-75638D02*
D03*
Y-85638D02*
D03*
Y-108138D02*
D03*
Y-118138D02*
D03*
X448433Y6362D02*
D03*
X458433D02*
D03*
X468433D02*
D03*
X207496Y-137638D02*
D03*
X215307D02*
D03*
X468433Y-5138D02*
D03*
Y-15138D02*
D03*
Y-37138D02*
D03*
Y-47138D02*
D03*
X388433Y16362D02*
D03*
X282996Y11362D02*
D03*
D53*
X56733Y-139538D02*
D03*
X145496Y9862D02*
D03*
X9433Y19862D02*
D03*
X457933Y21862D02*
D03*
X438433Y6362D02*
D03*
X398433Y16362D02*
D03*
X292996Y11362D02*
D03*
D54*
X-15067Y-23638D02*
D03*
X-15004Y-44638D02*
D03*
X468433Y-95638D02*
D03*
Y-128138D02*
D03*
Y-25138D02*
D03*
Y-57138D02*
D03*
D55*
X144696Y-53238D02*
D03*
Y-58238D02*
D03*
Y-63238D02*
D03*
Y-68238D02*
D03*
Y-73238D02*
D03*
X149696D02*
D03*
Y-68238D02*
D03*
Y-63238D02*
D03*
Y-58238D02*
D03*
Y-53238D02*
D03*
X30433Y-15138D02*
D03*
X20433Y-5138D02*
D03*
X10433Y-15138D02*
D03*
X27677Y-8052D02*
D03*
X13110D02*
D03*
D56*
X393953Y-60757D02*
D03*
X266453Y-64757D02*
D03*
D57*
X402417Y-71780D02*
D03*
Y-49733D02*
D03*
X274917Y-75780D02*
D03*
Y-53733D02*
D03*
D58*
X157922Y5891D02*
D03*
X146099Y-11814D02*
D03*
X800Y-50700D02*
D03*
X17800Y-115200D02*
D03*
X12787Y-71567D02*
D03*
X20300Y-92300D02*
D03*
X42700Y-99400D02*
D03*
X37887Y-114467D02*
D03*
X446233Y-113538D02*
D03*
X-6567Y-125238D02*
D03*
X16233Y-110138D02*
D03*
X75633Y-123038D02*
D03*
X120533Y-138538D02*
D03*
X177296D02*
D03*
X180333Y-83938D02*
D03*
X49333Y-79338D02*
D03*
X48333Y-61938D02*
D03*
X40589Y-51083D02*
D03*
X-2367Y-60638D02*
D03*
X4133Y-65938D02*
D03*
X46233Y-119938D02*
D03*
X54833Y-102938D02*
D03*
X39033Y-43138D02*
D03*
X2496Y23362D02*
D03*
X65696Y-108338D02*
D03*
X147933Y-9575D02*
D03*
X138296Y-1638D02*
D03*
X84233Y-133338D02*
D03*
X59733Y-98038D02*
D03*
X185096Y-113238D02*
D03*
X241833Y12662D02*
D03*
X447233Y-134838D02*
D03*
X445996Y-141238D02*
D03*
X76433Y21162D02*
D03*
X132596Y9462D02*
D03*
X388033Y-123438D02*
D03*
X412896Y-102638D02*
D03*
Y-106538D02*
D03*
X330996Y-116338D02*
D03*
X432733Y-60738D02*
D03*
X194433Y-106038D02*
D03*
X190096Y-125938D02*
D03*
X406896Y2962D02*
D03*
X168433Y-136775D02*
D03*
X269696Y-119838D02*
D03*
X406896Y-125638D02*
D03*
X438096Y-39938D02*
D03*
X399533Y-116238D02*
D03*
X441896Y-57538D02*
D03*
X415696Y-7238D02*
D03*
X443996Y-90638D02*
D03*
X450696Y-48738D02*
D03*
X188396Y-100238D02*
D03*
X159681Y-125838D02*
D03*
X276446Y-113138D02*
D03*
X345296Y-6538D02*
D03*
X310596Y14362D02*
D03*
X369996Y12962D02*
D03*
X325896Y-8138D02*
D03*
X217396Y-3238D02*
D03*
X212696Y20462D02*
D03*
X235596Y6562D02*
D03*
X258396Y-1738D02*
D03*
X264896Y-8938D02*
D03*
X220996Y-127438D02*
D03*
X260296Y-7538D02*
D03*
X273596Y-14138D02*
D03*
X271596Y-10038D02*
D03*
X278996Y-14638D02*
D03*
X285696Y-21238D02*
D03*
X424196Y-38138D02*
D03*
X245296Y5462D02*
D03*
X187696Y-15738D02*
D03*
X206896Y-9638D02*
D03*
X180796Y-2938D02*
D03*
X178896Y-49738D02*
D03*
X178496Y-19538D02*
D03*
X421796Y-28138D02*
D03*
X421296Y-32538D02*
D03*
X429496Y-40638D02*
D03*
X426396Y-35238D02*
D03*
X420196Y-24538D02*
D03*
X423496Y-22138D02*
D03*
X319096Y-21938D02*
D03*
X310296Y-29838D02*
D03*
X451996Y-61738D02*
D03*
X400396Y-14138D02*
D03*
X409296Y10362D02*
D03*
X410796Y-7938D02*
D03*
X421696Y-9938D02*
D03*
X429296Y-6838D02*
D03*
X438896Y-938D02*
D03*
X448296Y-36038D02*
D03*
X452396Y-29738D02*
D03*
X454996Y-11438D02*
D03*
X443996Y-6338D02*
D03*
X327596Y-137738D02*
D03*
X315596Y-131838D02*
D03*
X305896Y-136238D02*
D03*
X310596Y-19938D02*
D03*
X334196Y-9238D02*
D03*
X325196Y-17138D02*
D03*
X386296Y-136838D02*
D03*
X446650Y-102738D02*
D03*
X451496Y-102038D02*
D03*
X453780Y-108838D02*
D03*
X429896Y-138638D02*
D03*
X429796Y-133538D02*
D03*
X456696Y-135538D02*
D03*
X421396Y-121238D02*
D03*
X420496Y-136538D02*
D03*
X451996Y-84838D02*
D03*
X438696Y-87638D02*
D03*
X311296Y-49938D02*
D03*
X424296Y-89538D02*
D03*
X86996Y-1638D02*
D03*
X83496Y1862D02*
D03*
X75996Y9736D02*
D03*
X82496Y6862D02*
D03*
X137996Y-8138D02*
D03*
X78496Y1362D02*
D03*
X76496Y17862D02*
D03*
X420433Y16925D02*
D03*
X116933Y8425D02*
D03*
X-3067Y7425D02*
D03*
X119933Y23425D02*
D03*
X148933Y425D02*
D03*
X150433Y5925D02*
D03*
X59933Y-27075D02*
D03*
X50496Y4362D02*
D03*
X99496Y2362D02*
D03*
X112996Y8362D02*
D03*
X106496Y9362D02*
D03*
X132496Y5362D02*
D03*
X134996Y-5138D02*
D03*
D59*
X145490Y-3113D02*
D03*
X52333Y-41738D02*
D03*
X52996Y-33888D02*
D03*
X61496Y-19638D02*
D03*
D60*
X63833Y-123238D02*
D03*
D61*
X436598Y-123804D02*
D03*
X432268D02*
D03*
X436598Y-119473D02*
D03*
X432268D02*
D03*
M02*
