G04*
G04 #@! TF.GenerationSoftware,Altium Limited,Altium Designer,21.9.2 (33)*
G04*
G04 Layer_Color=8421504*
%FSLAX25Y25*%
%MOIN*%
G70*
G04*
G04 #@! TF.SameCoordinates,4219B8C6-809A-426F-B61B-8FBD35EC1222*
G04*
G04*
G04 #@! TF.FilePolarity,Positive*
G04*
G01*
G75*
%ADD15R,0.05709X0.09843*%
%ADD16R,0.05906X0.09843*%
%ADD17R,0.03150X0.07480*%
%ADD18R,0.03937X0.04331*%
%ADD19R,0.03150X0.03150*%
%ADD20R,0.03150X0.06693*%
%ADD21R,0.06693X0.03150*%
%ADD22R,0.06299X0.03937*%
%ADD23R,0.05118X0.05118*%
%ADD24R,0.05906X0.01772*%
%ADD25R,0.04331X0.03937*%
%ADD26R,0.03543X0.02756*%
%ADD27R,0.04331X0.02559*%
%ADD28R,0.02756X0.03543*%
%ADD29O,0.03150X0.00787*%
%ADD30O,0.00787X0.03150*%
%ADD31R,0.05236X0.05236*%
%ADD32R,0.02559X0.04331*%
D15*
X136596Y-49138D02*
D03*
X136549Y-82138D02*
D03*
X386886Y-78138D02*
D03*
X386933Y-45138D02*
D03*
X260386Y-81138D02*
D03*
X260433Y-48138D02*
D03*
D16*
X82096Y-49138D02*
D03*
X81596Y-82138D02*
D03*
X331933Y-78138D02*
D03*
X332433Y-45138D02*
D03*
X205433Y-81138D02*
D03*
X205933Y-48138D02*
D03*
D17*
X90584Y-72690D02*
D03*
X94915D02*
D03*
X99246D02*
D03*
X103576D02*
D03*
X107907D02*
D03*
X112238D02*
D03*
X116569D02*
D03*
X120899D02*
D03*
X371236Y-68690D02*
D03*
X366905D02*
D03*
X362575D02*
D03*
X358244D02*
D03*
X353913D02*
D03*
X349583D02*
D03*
X345252D02*
D03*
X340921D02*
D03*
X244736Y-71690D02*
D03*
X240406D02*
D03*
X236075D02*
D03*
X231744D02*
D03*
X227413D02*
D03*
X223083D02*
D03*
X218752D02*
D03*
X214421D02*
D03*
D18*
X374933Y-136985D02*
D03*
Y-130292D02*
D03*
X368433Y-137185D02*
D03*
Y-130492D02*
D03*
X84233Y20308D02*
D03*
Y13615D02*
D03*
X455433Y-112792D02*
D03*
Y-119485D02*
D03*
X301933Y-106485D02*
D03*
Y-99792D02*
D03*
X183996Y9208D02*
D03*
Y2515D02*
D03*
X420933Y-104485D02*
D03*
Y-97792D02*
D03*
D19*
X97581Y20362D02*
D03*
X91085D02*
D03*
X90885Y12462D02*
D03*
X97381D02*
D03*
X-2315Y-73038D02*
D03*
X4181D02*
D03*
X198181Y14362D02*
D03*
X191685D02*
D03*
X323048Y14262D02*
D03*
X329544D02*
D03*
D20*
X232803Y-29538D02*
D03*
X246189D02*
D03*
X373089Y-26638D02*
D03*
X359703D02*
D03*
D21*
X76996Y-71731D02*
D03*
Y-58346D02*
D03*
D22*
X102996Y-27638D02*
D03*
X122996D02*
D03*
D23*
X62933Y1862D02*
D03*
X70807D02*
D03*
X62933Y9736D02*
D03*
X70807D02*
D03*
D24*
X401433Y-65875D02*
D03*
Y-63316D02*
D03*
Y-60757D02*
D03*
Y-58197D02*
D03*
Y-55638D02*
D03*
X273933Y-69875D02*
D03*
Y-67316D02*
D03*
Y-64757D02*
D03*
Y-62198D02*
D03*
Y-59638D02*
D03*
D25*
X94842Y6362D02*
D03*
X88150D02*
D03*
X162843Y-129575D02*
D03*
X156150D02*
D03*
X413050Y-125338D02*
D03*
X419742D02*
D03*
X456779Y-125638D02*
D03*
X450087D02*
D03*
Y-130638D02*
D03*
X456779D02*
D03*
X447342Y-106838D02*
D03*
X440650D02*
D03*
X440150Y-99038D02*
D03*
X446842D02*
D03*
X434279Y-99638D02*
D03*
X427587D02*
D03*
X427587Y-105138D02*
D03*
X434279D02*
D03*
X416250Y-130938D02*
D03*
X422942D02*
D03*
X338950Y13862D02*
D03*
X345642D02*
D03*
D26*
X67555Y-9138D02*
D03*
X62437D02*
D03*
X190055Y-122075D02*
D03*
X184937D02*
D03*
X441374Y-93638D02*
D03*
X446492D02*
D03*
X432492Y-93138D02*
D03*
X427374D02*
D03*
X156937Y-122138D02*
D03*
X162055D02*
D03*
X184937Y-130075D02*
D03*
X190055D02*
D03*
D27*
X178720Y-122335D02*
D03*
Y-129816D02*
D03*
X169272D02*
D03*
Y-126075D02*
D03*
Y-122335D02*
D03*
D28*
X449433Y-114579D02*
D03*
Y-119697D02*
D03*
X301933Y-136197D02*
D03*
Y-131079D02*
D03*
X309933Y-101079D02*
D03*
Y-106198D02*
D03*
Y-136197D02*
D03*
Y-131079D02*
D03*
D29*
X442307Y-126363D02*
D03*
Y-124788D02*
D03*
Y-123213D02*
D03*
Y-121638D02*
D03*
Y-120064D02*
D03*
Y-118489D02*
D03*
Y-116914D02*
D03*
X426559D02*
D03*
Y-118489D02*
D03*
Y-120064D02*
D03*
Y-121638D02*
D03*
Y-123213D02*
D03*
Y-124788D02*
D03*
Y-126363D02*
D03*
D30*
X439157Y-113764D02*
D03*
X437583D02*
D03*
X436008D02*
D03*
X434433D02*
D03*
X432858D02*
D03*
X431283D02*
D03*
X429709D02*
D03*
Y-129513D02*
D03*
X431283D02*
D03*
X432858D02*
D03*
X434433D02*
D03*
X436008D02*
D03*
X437583D02*
D03*
X439157D02*
D03*
D31*
X434433Y-121638D02*
D03*
D32*
X309579Y-122847D02*
D03*
X302098D02*
D03*
Y-113398D02*
D03*
X305839D02*
D03*
X309579D02*
D03*
M02*
