G04*
G04 #@! TF.GenerationSoftware,Altium Limited,Altium Designer,21.9.2 (33)*
G04*
G04 Layer_Color=32768*
%FSLAX25Y25*%
%MOIN*%
G70*
G04*
G04 #@! TF.SameCoordinates,4219B8C6-809A-426F-B61B-8FBD35EC1222*
G04*
G04*
G04 #@! TF.FilePolarity,Positive*
G04*
G01*
G75*
%ADD14C,0.00394*%
%ADD145C,0.00197*%
D14*
X28100Y-107869D02*
Y-103931D01*
X26131Y-105900D02*
X30068D01*
X-16036Y-117638D02*
X-12098D01*
X-14067Y-119607D02*
Y-115670D01*
X-18398Y-122166D02*
Y-113111D01*
X-9736Y-122166D02*
Y-113111D01*
X-18398D02*
X-9736D01*
X-18398Y-122166D02*
X-9736D01*
X115933Y-8107D02*
Y-4170D01*
X113965Y-6138D02*
X117902D01*
X59465Y-3139D02*
X63402D01*
X61433Y-5107D02*
Y-1170D01*
X68520Y-11012D02*
Y4736D01*
X54346Y-11012D02*
Y4736D01*
Y-11012D02*
X68520D01*
X54346Y4736D02*
X68520D01*
X436433Y-23780D02*
Y-19843D01*
X434465Y-21812D02*
X438402D01*
X449965Y-75638D02*
X453902D01*
X451933Y-77607D02*
Y-73670D01*
X444846Y-83512D02*
Y-67764D01*
X459020Y-83512D02*
Y-67764D01*
X444846D02*
X459020D01*
X444846Y-83512D02*
X459020D01*
X406964Y-20638D02*
X410902D01*
X408933Y-22607D02*
Y-18670D01*
X173996Y-128044D02*
Y-124107D01*
X172028Y-126075D02*
X175965D01*
X166122Y-133162D02*
X181870D01*
X166122Y-118989D02*
X181870D01*
Y-133162D02*
Y-118989D01*
X166122Y-133162D02*
Y-118989D01*
X12933Y-34107D02*
Y-30170D01*
X10965Y-32138D02*
X14902D01*
X435933Y-50607D02*
Y-46670D01*
X433964Y-48638D02*
X437901D01*
X428059Y-55725D02*
X443807D01*
X428059Y-41552D02*
X443807D01*
X428059Y-55725D02*
Y-41552D01*
X443807Y-55725D02*
Y-41552D01*
X431933Y-105607D02*
Y-101670D01*
X429964Y-103638D02*
X433902D01*
X432465Y-121638D02*
X436402D01*
X434433Y-123607D02*
Y-119670D01*
X303870Y-118123D02*
X307807D01*
X305839Y-120091D02*
Y-116154D01*
X298752Y-125997D02*
Y-110249D01*
X312925Y-125997D02*
Y-110249D01*
X298752Y-125997D02*
X312925D01*
X298752Y-110249D02*
X312925D01*
X273665Y-4666D02*
X282327D01*
X273665Y4389D02*
X282327D01*
Y-4666D02*
Y4389D01*
X273665Y-4666D02*
Y4389D01*
X277996Y-2107D02*
Y1830D01*
X276027Y-138D02*
X279965D01*
X414933Y893D02*
Y4830D01*
X412964Y2862D02*
X416901D01*
X407059Y-4225D02*
X422807D01*
X407059Y9948D02*
X422807D01*
X407059Y-4225D02*
Y9948D01*
X422807Y-4225D02*
Y9948D01*
D145*
X21013Y-98223D02*
X35187D01*
X21013Y-113577D02*
X35187D01*
X21013D02*
Y-98223D01*
X35187Y-113577D02*
Y-98223D01*
X102154Y7641D02*
X129713D01*
X102154Y-19918D02*
X129713D01*
X102154D02*
Y7641D01*
X129713Y-19918D02*
Y7641D01*
X424228Y-9607D02*
X448638D01*
X424228Y-34016D02*
X448638D01*
X424228D02*
Y-9607D01*
X448638Y-34016D02*
Y-9607D01*
X413559Y-27134D02*
Y-14142D01*
X404307Y-27134D02*
Y-14142D01*
Y-27134D02*
X413559D01*
X404307Y-14142D02*
X413559D01*
X5059Y-25052D02*
X20807D01*
X5059Y-39225D02*
X20807D01*
Y-25052D01*
X5059Y-39225D02*
Y-25052D01*
X419728Y-91434D02*
X444138D01*
X419728Y-115843D02*
X444138D01*
X419728D02*
Y-91434D01*
X444138Y-115843D02*
Y-91434D01*
X444768Y-131973D02*
Y-111304D01*
X424098Y-131973D02*
Y-111304D01*
Y-131973D02*
X444768D01*
X424098Y-111304D02*
X444768D01*
M02*
