M48
;Layer_Color=9474304
;FILE_FORMAT=2:5
INCH,TZ
;TYPE=PLATED
T1F00S00C0.00787
T2F00S00C0.01000
T3F00S00C0.01500
T4F00S00C0.01968
T5F00S00C0.02559
T6F00S00C0.02800
T7F00S00C0.03543
T8F00S00C0.03740
T9F00S00C0.05118
%
T01
X432268Y-123804
X436598
Y-119473
X432268
T02
X386296Y-136838
X388033Y-123438
X399533Y-116238
X406896Y-125638
X421396Y-121238
X420496Y-136538
X429896Y-138638
X429796Y-133538
X447233Y-134838
X445996Y-141238
X456696Y-135538
X453780Y-108838
X451496Y-102038
X446650Y-102738
X446233Y-113538
X443996Y-90638
X438696Y-87638
X451996Y-84838
Y-61738
X441896Y-57538
X432733Y-60738
X429496Y-40638
X424196Y-38138
X426396Y-35238
X421296Y-32538
X438096Y-39938
X448296Y-36038
X452396Y-29738
X450696Y-48738
X424296Y-89538
X412896Y-102638
Y-106538
X330996Y-116338
X327596Y-137738
X315596Y-131838
X305896Y-136238
X276446Y-113138
X269696Y-119838
X220996Y-127438
X190096Y-125938
X185096Y-113238
X188396Y-100238
X194433Y-106038
X311296Y-49938
X310296Y-29838
X178896Y-49738
X180333Y-83938
X157685Y-102780
X149100Y-115000
X159681Y-125838
X168433Y-136775
X177296Y-138538
X120533
X84233Y-133338
X75633Y-123038
X77196Y-114038
X65696Y-108338
X54833Y-102938
X59733Y-98038
X42700Y-99400
X37887Y-114467
X46233Y-119938
X49333Y-79338
X48333Y-61938
X40589Y-51083
X39033Y-43138
X60500Y-33700
X800Y-50700
X-2367Y-60638
X4133Y-65938
X12787Y-71567
X20300Y-92300
X16233Y-110138
X17800Y-115200
X-6567Y-125238
X-3067Y7425
X2496Y23362
X50496Y4362
X75996Y9736
X76496Y17862
X76433Y21162
X82496Y6862
X83496Y1862
X78496Y1362
X79700Y-8400
X84200Y-8000
X88700Y-8800
X86996Y-1638
X99496Y2362
X106496Y9362
X112996Y8362
X116933Y8425
X132596Y9462
X132496Y5362
X138296Y-1638
X137996Y-8138
X134996Y-5138
X147933Y-9575
X146099Y-11814
X148933Y425
X150433Y5925
X157922Y5891
X158400Y-24000
X178496Y-19538
X180796Y-2938
X119933Y23425
X79986Y-13129
X59933Y-27075
X187696Y-15738
X206896Y-9638
X217396Y-3238
X235596Y6562
X245296Y5462
X241833Y12662
X258396Y-1738
X260296Y-7538
X264896Y-8938
X271596Y-10038
X273596Y-14138
X278996Y-14638
X285696Y-21238
X310596Y-19938
X319096Y-21938
X325196Y-17138
X325896Y-8138
X334196Y-9238
X310596Y14362
X212696Y20462
X345296Y-6538
X369996Y12962
X409296Y10362
X406896Y2962
X410796Y-7938
X415696Y-7238
X421696Y-9938
X429296Y-6838
X443996Y-6338
X438896Y-938
X454996Y-11438
X423496Y-22138
X420196Y-24538
X421796Y-28138
X400396Y-14138
X420433Y16925
T03
X52333Y-41738
X52996Y-33888
X61496Y-19638
X75300Y-10900
X145490Y-3113
X154996Y-13638
T04
X10433Y-15138
X13110Y-8052
X20433Y-5138
X27677Y-8052
X30433Y-15138
T05
X144696Y-73238
Y-68238
Y-63238
Y-58238
Y-53238
X149696
Y-58238
Y-63238
Y-68238
Y-73238
T06
X63833Y-123238
T07
X346807Y-137638
X401422Y-136738
X409233
X468433Y-128138
Y-118138
Y-108138
Y-95638
Y-85638
Y-75638
Y-57138
Y-47138
Y-37138
X338996Y-137638
X215307
X207496
X56733Y-139538
X46733
X36733
X26733
X16733
X6733
X-15004Y-54638
Y-44638
X-15067Y-23638
Y-13638
Y-3638
Y6362
Y16362
X9433Y19862
X19433
X29433
X39433
X145496
X155496
X165496
Y9862
X155496
X145496
X282996Y11362
X292996
X388433Y16362
X398433
X437933Y21862
X447933
X457933
X458433Y6362
X448433
X438433
X468433
Y-5138
Y-15138
Y-25138
T08
X402417Y-71780
Y-49733
X274917Y-53733
Y-75780
T09
X393953Y-60757
X266453Y-64757
M30
