G04*
G04 #@! TF.GenerationSoftware,Altium Limited,Altium Designer,21.9.2 (33)*
G04*
G04 Layer_Physical_Order=1*
G04 Layer_Color=255*
%FSLAX25Y25*%
%MOIN*%
G70*
G04*
G04 #@! TF.SameCoordinates,4219B8C6-809A-426F-B61B-8FBD35EC1222*
G04*
G04*
G04 #@! TF.FilePolarity,Positive*
G04*
G01*
G75*
%ADD10C,0.01000*%
%ADD15R,0.05709X0.09843*%
%ADD16R,0.05906X0.09843*%
%ADD17R,0.03150X0.07480*%
%ADD18R,0.03937X0.04331*%
%ADD19R,0.03150X0.03150*%
%ADD20R,0.03150X0.06693*%
%ADD21R,0.06693X0.03150*%
%ADD22R,0.06299X0.03937*%
%ADD23R,0.05118X0.05118*%
%ADD24R,0.05906X0.01772*%
%ADD25R,0.04331X0.03937*%
%ADD26R,0.03543X0.02756*%
%ADD27R,0.04331X0.02559*%
%ADD28R,0.02756X0.03543*%
%ADD29O,0.03150X0.00787*%
%ADD30O,0.00787X0.03150*%
%ADD32R,0.02559X0.04331*%
%ADD37C,0.05000*%
%ADD58C,0.03000*%
%ADD62C,0.00600*%
%ADD63C,0.01500*%
%ADD64C,0.00800*%
%ADD65C,0.04000*%
%ADD66R,0.10236X0.10236*%
%ADD67C,0.01200*%
%ADD68C,0.05906*%
%ADD69R,0.05906X0.05906*%
%ADD70R,0.05906X0.05906*%
%ADD71C,0.03937*%
%ADD72O,0.06693X0.07087*%
%ADD73C,0.06102*%
%ADD74C,0.02200*%
%ADD75C,0.01968*%
D10*
X145490Y-3113D02*
G03*
X145713Y-3138I224J975D01*
G01*
X59833Y-112342D02*
G03*
X60460Y-113270I1000J0D01*
G01*
X74597Y-118956D02*
G03*
X75343Y-119100I746J1856D01*
G01*
X149751D02*
G03*
X150605Y-118909I0J2000D01*
G01*
X163328Y-113634D02*
G03*
X162196Y-113438I-705J-709D01*
G01*
X82195Y-19273D02*
G03*
X82968Y-19638I773J635D01*
G01*
X145713Y-3138D02*
X148496D01*
X145490Y-3113D02*
Y-3113D01*
X103496Y-80138D02*
X105596Y-82238D01*
X124455D01*
X103496Y-80138D02*
Y-72190D01*
X124455Y-82238D02*
X132555Y-74138D01*
X139796D01*
X142296Y-76638D02*
X146996D01*
X139796Y-74138D02*
X142296Y-76638D01*
X146996D02*
X149196Y-74438D01*
Y-73138D01*
X107596Y-79238D02*
X108996Y-80638D01*
X107596Y-79238D02*
Y-72190D01*
X108996Y-80638D02*
X123792D01*
X136292Y-68138D01*
X142496D01*
X111896Y-77238D02*
X113096Y-78438D01*
Y-78638D02*
Y-78438D01*
X111896Y-77238D02*
Y-72190D01*
X113096Y-78638D02*
X123296D01*
X140796Y-61138D01*
Y-50638D02*
X142796Y-48638D01*
X140796Y-61138D02*
Y-50638D01*
X148096Y-48638D02*
X149596Y-50138D01*
Y-53138D02*
Y-50138D01*
X142796Y-48638D02*
X148096D01*
X94996Y-87638D02*
X99996Y-92638D01*
X94996Y-87638D02*
Y-72190D01*
X99996Y-92638D02*
X139496D01*
X152996Y-79138D02*
Y-71538D01*
X149696Y-68238D02*
X152996Y-71538D01*
X139496Y-92638D02*
X152996Y-79138D01*
X163328Y-113634D02*
X163330Y-113635D01*
X75343Y-119100D02*
X149751D01*
X59833Y-112342D02*
Y-104658D01*
X163330Y-113635D02*
X169272Y-119577D01*
X150605Y-118909D02*
X162196Y-113438D01*
X60460Y-113270D02*
X74597Y-118956D01*
X75300Y-10900D02*
X82195Y-19273D01*
X82968Y-19638D02*
X122996D01*
X420496Y16925D02*
Y21862D01*
X83996Y-75109D02*
Y-61138D01*
X59833Y-104658D02*
X66555Y-97937D01*
X83996Y-75109D02*
X85649Y-76762D01*
X75227Y-97937D02*
X85649Y-87515D01*
Y-76762D01*
X66555Y-97937D02*
X75227D01*
X147296Y-8938D02*
X147933Y-9575D01*
X186696Y23062D02*
X292996D01*
X420433Y16925D02*
X420496D01*
X463676Y11962D02*
X470533D01*
X458713Y16925D02*
X463676Y11962D01*
X420496Y16925D02*
X458713D01*
X470533Y11962D02*
X473996Y8499D01*
X165296Y1662D02*
X186696Y23062D01*
X150807Y1662D02*
X165296D01*
X149844Y2625D02*
X150807Y1662D01*
X148022Y2625D02*
X149844D01*
X147059Y1662D02*
X148022Y2625D01*
X135796Y1662D02*
X147059D01*
X419196Y23162D02*
X420496Y21862D01*
X292996Y23162D02*
X419196D01*
X458796Y-138638D02*
X465394D01*
X169272Y-122335D02*
Y-119577D01*
X162252Y-122335D02*
X169272D01*
X217496Y962D02*
X374596D01*
X216833Y2562D02*
X375259D01*
X246596Y4162D02*
X375922D01*
X424196Y-38138D02*
X430496D01*
X431696Y-39338D01*
Y-41550D02*
Y-39338D01*
X427507Y-45738D02*
X431696Y-41550D01*
X419033Y-45738D02*
X427507D01*
X373933Y-638D02*
X419033Y-45738D01*
X298196Y-638D02*
X373933D01*
X285696Y-13138D02*
X298196Y-638D01*
X285696Y-21238D02*
Y-13138D01*
X375922Y4162D02*
X412522Y-32438D01*
X421196D01*
X412859Y-35038D02*
X426396D01*
X375259Y2562D02*
X412859Y-35038D01*
X419696Y-44138D02*
X425996D01*
X374596Y962D02*
X419696Y-44138D01*
X245296Y5462D02*
X246596Y4162D01*
X207333Y-6938D02*
X216833Y2562D01*
X194796Y-6938D02*
X207333D01*
X206896Y-9638D02*
X217496Y962D01*
X187696Y-14038D02*
X194796Y-6938D01*
X187696Y-15738D02*
Y-14038D01*
X425996Y-44138D02*
X429496Y-40638D01*
X421196Y-32438D02*
X421296Y-32538D01*
X465394Y-138638D02*
X472486Y-131547D01*
Y-128429D01*
X473996Y-126918D02*
Y8499D01*
X472486Y-128429D02*
X473996Y-126918D01*
X131996Y-2638D02*
X132996D01*
X126496D02*
X131996D01*
X148496Y-3138D02*
X154996Y-9638D01*
Y-12138D02*
Y-9638D01*
X135796Y162D02*
Y1662D01*
X132996Y-2638D02*
X135796Y162D01*
X122996Y-6138D02*
X126496Y-2638D01*
X122996Y-19638D02*
Y-6138D01*
Y-27638D02*
Y-19638D01*
Y-33138D02*
Y-27638D01*
X111996Y-44138D02*
X122996Y-33138D01*
X100996Y-44138D02*
X111996D01*
X83996Y-61138D02*
X100996Y-44138D01*
D15*
X136596Y-49138D02*
D03*
X136549Y-82138D02*
D03*
X386886Y-78138D02*
D03*
X386933Y-45138D02*
D03*
X260386Y-81138D02*
D03*
X260433Y-48138D02*
D03*
D16*
X82096Y-49138D02*
D03*
X81596Y-82138D02*
D03*
X331933Y-78138D02*
D03*
X332433Y-45138D02*
D03*
X205433Y-81138D02*
D03*
X205933Y-48138D02*
D03*
D17*
X90584Y-72690D02*
D03*
X94915D02*
D03*
X99246D02*
D03*
X103576D02*
D03*
X107907D02*
D03*
X112238D02*
D03*
X116569D02*
D03*
X120899D02*
D03*
X371236Y-68690D02*
D03*
X366905D02*
D03*
X362575D02*
D03*
X358244D02*
D03*
X353913D02*
D03*
X349583D02*
D03*
X345252D02*
D03*
X340921D02*
D03*
X244736Y-71690D02*
D03*
X240406D02*
D03*
X236075D02*
D03*
X231744D02*
D03*
X227413D02*
D03*
X223083D02*
D03*
X218752D02*
D03*
X214421D02*
D03*
D18*
X374933Y-136985D02*
D03*
Y-130292D02*
D03*
X368433Y-137185D02*
D03*
Y-130492D02*
D03*
X84233Y20308D02*
D03*
Y13615D02*
D03*
X455433Y-112792D02*
D03*
Y-119485D02*
D03*
X301933Y-106485D02*
D03*
Y-99792D02*
D03*
X183996Y9208D02*
D03*
Y2515D02*
D03*
X420933Y-104485D02*
D03*
Y-97792D02*
D03*
D19*
X97581Y20362D02*
D03*
X91085D02*
D03*
X90885Y12462D02*
D03*
X97381D02*
D03*
X-2315Y-73038D02*
D03*
X4181D02*
D03*
X198181Y14362D02*
D03*
X191685D02*
D03*
X323048Y14262D02*
D03*
X329544D02*
D03*
D20*
X232803Y-29538D02*
D03*
X246189D02*
D03*
X373089Y-26638D02*
D03*
X359703D02*
D03*
D21*
X76996Y-71731D02*
D03*
Y-58346D02*
D03*
D22*
X102996Y-27638D02*
D03*
X122996D02*
D03*
D23*
X62933Y1862D02*
D03*
X70807D02*
D03*
X62933Y9736D02*
D03*
X70807D02*
D03*
D24*
X401433Y-65875D02*
D03*
Y-63316D02*
D03*
Y-60757D02*
D03*
Y-58197D02*
D03*
Y-55638D02*
D03*
X273933Y-69875D02*
D03*
Y-67316D02*
D03*
Y-64757D02*
D03*
Y-62198D02*
D03*
Y-59638D02*
D03*
D25*
X94842Y6362D02*
D03*
X88150D02*
D03*
X162843Y-129575D02*
D03*
X156150D02*
D03*
X413050Y-125338D02*
D03*
X419742D02*
D03*
X456779Y-125638D02*
D03*
X450087D02*
D03*
Y-130638D02*
D03*
X456779D02*
D03*
X447342Y-106838D02*
D03*
X440650D02*
D03*
X440150Y-99038D02*
D03*
X446842D02*
D03*
X434279Y-99638D02*
D03*
X427587D02*
D03*
X427587Y-105138D02*
D03*
X434279D02*
D03*
X416250Y-130938D02*
D03*
X422942D02*
D03*
X338950Y13862D02*
D03*
X345642D02*
D03*
D26*
X67555Y-9138D02*
D03*
X62437D02*
D03*
X190055Y-122075D02*
D03*
X184937D02*
D03*
X441374Y-93638D02*
D03*
X446492D02*
D03*
X432492Y-93138D02*
D03*
X427374D02*
D03*
X156937Y-122138D02*
D03*
X162055D02*
D03*
X184937Y-130075D02*
D03*
X190055D02*
D03*
D27*
X178720Y-122335D02*
D03*
Y-129816D02*
D03*
X169272D02*
D03*
Y-126075D02*
D03*
Y-122335D02*
D03*
D28*
X449433Y-114579D02*
D03*
Y-119697D02*
D03*
X301933Y-136197D02*
D03*
Y-131079D02*
D03*
X309933Y-101079D02*
D03*
Y-106198D02*
D03*
Y-136197D02*
D03*
Y-131079D02*
D03*
D29*
X442307Y-126363D02*
D03*
Y-124788D02*
D03*
Y-123213D02*
D03*
Y-121638D02*
D03*
Y-120064D02*
D03*
Y-118489D02*
D03*
Y-116914D02*
D03*
X426559D02*
D03*
Y-118489D02*
D03*
Y-120064D02*
D03*
Y-121638D02*
D03*
Y-123213D02*
D03*
Y-124788D02*
D03*
Y-126363D02*
D03*
D30*
X439157Y-113764D02*
D03*
X437583D02*
D03*
X436008D02*
D03*
X434433D02*
D03*
X432858D02*
D03*
X431283D02*
D03*
X429709D02*
D03*
Y-129513D02*
D03*
X431283D02*
D03*
X432858D02*
D03*
X434433D02*
D03*
X436008D02*
D03*
X437583D02*
D03*
X439157D02*
D03*
D32*
X309579Y-122847D02*
D03*
X302098D02*
D03*
Y-113398D02*
D03*
X305839D02*
D03*
X309579D02*
D03*
D37*
X63833Y-123238D02*
D03*
D58*
X145490Y-3113D02*
D03*
X75300Y-10900D02*
D03*
X154996Y-13638D02*
D03*
X52333Y-41738D02*
D03*
X52996Y-33888D02*
D03*
X61496Y-19638D02*
D03*
D62*
X155676Y-109192D02*
G03*
X155739Y-109052I-509J317D01*
G01*
X152089Y-111147D02*
G03*
X151734Y-111381I131J-586D01*
G01*
X74921Y-117526D02*
G03*
X75343Y-117700I422J426D01*
G01*
X149751D02*
G03*
X150176Y-117524I0J600D01*
G01*
X155031Y-18783D02*
G03*
X154953Y-18687I-504J-326D01*
G01*
X-14679Y-78826D02*
G03*
X-14257Y-79000I422J426D01*
G01*
X13370Y-79176D02*
G03*
X12946Y-79000I-424J-424D01*
G01*
X155739Y-109052D02*
X157685Y-102780D01*
X154803Y-110553D02*
X155674Y-109195D01*
X155676Y-109192D01*
X157922Y5891D02*
X158105Y6075D01*
X161709D01*
X149100Y-115000D02*
X151734Y-111381D01*
X152089Y-111147D02*
X152092Y-111146D01*
X154803Y-110553D01*
X116696Y-72190D02*
Y-59938D01*
X124496Y-52138D01*
Y-40638D01*
X137996Y-27138D01*
Y-8138D01*
X161933Y-105767D02*
Y-23970D01*
X65733Y-108338D02*
X74919Y-117524D01*
X74921Y-117526D01*
X150176Y-117524D02*
X161933Y-105767D01*
X75343Y-117700D02*
X149751D01*
X155031Y-18783D02*
X158400Y-24000D01*
X149996Y-13730D02*
X154951Y-18685D01*
X154953Y-18687D01*
X79700Y-8400D02*
X79986Y-13129D01*
X-14681Y-78824D02*
X-14679Y-78826D01*
X76499Y-5938D02*
X94024D01*
X106124Y6162D01*
X71427Y-11011D02*
X76499Y-5938D01*
X-18857Y-74649D02*
X-14681Y-78824D01*
X48533Y-30138D02*
X49596Y-29075D01*
X65196Y-24641D02*
Y-17241D01*
X60761Y-29075D02*
X65196Y-24641D01*
X49596Y-29075D02*
X60761D01*
X90685Y12462D02*
Y16050D01*
X-14257Y-79000D02*
X12946D01*
X13370Y-79176D02*
X78033Y-143838D01*
X444233Y-111301D02*
X445596Y-109938D01*
X442307Y-116914D02*
X442343Y-116878D01*
X443824D02*
X444233Y-116469D01*
Y-111301D01*
X442343Y-116878D02*
X443824D01*
X323733Y-142738D02*
X396096D01*
X415474Y-110838D02*
X429033D01*
X396096Y-142738D02*
X425696D01*
X429709Y-113764D02*
Y-111514D01*
X429033Y-110838D02*
X429709Y-111514D01*
X-18857Y-74649D02*
Y-38428D01*
X41833Y-110138D02*
X56733Y-125038D01*
X16233Y-110138D02*
X41833D01*
X56733Y-139538D02*
Y-125038D01*
X78033Y-143838D02*
X283233D01*
X27033Y-138838D02*
X46133Y-119738D01*
X76133Y-123338D02*
X82933D01*
X100133Y-140538D01*
X283233Y-143838D02*
X283283Y-143788D01*
X190533Y-140538D02*
X196333Y-134738D01*
X100133Y-140538D02*
X190533D01*
X196333Y-134738D02*
Y-116438D01*
X180333Y-100438D02*
X196333Y-116438D01*
X180333Y-100438D02*
Y-83938D01*
X39033Y-43138D02*
X40589Y-51083D01*
X55033Y-102738D02*
X59733Y-98038D01*
X149996Y-13730D02*
Y-8810D01*
X152596Y-14633D02*
X161933Y-23970D01*
X152596Y-14633D02*
Y-9701D01*
X148433Y-5538D02*
X152596Y-9701D01*
X141516Y-4938D02*
X144116Y-7538D01*
X144502Y-5538D02*
X148433D01*
X140602Y-1638D02*
X144502Y-5538D01*
X148724Y-7538D02*
X149996Y-8810D01*
X144116Y-7538D02*
X148724D01*
X138296Y-1638D02*
X140602D01*
X134996Y-5138D02*
X135196Y-4938D01*
X141516D01*
X161709Y6075D02*
X165496Y9862D01*
X-18857Y-38428D02*
X-10567Y-30138D01*
X48533D01*
X65296Y23862D02*
X78259D01*
X20496D02*
X65296D01*
X434296Y-42627D02*
Y-37538D01*
X428484Y-48438D02*
X434296Y-42627D01*
X412596Y2062D02*
X451033D01*
X453333Y4362D01*
Y9062D01*
X464396Y9262D02*
X467296Y6362D01*
X462833Y9262D02*
X464396D01*
X460033Y12062D02*
X462833Y9262D01*
X456333Y12062D02*
X460033D01*
X241833Y9662D02*
X243924D01*
X241833Y9970D02*
Y12662D01*
X243924Y9662D02*
X247224Y6362D01*
X236424Y4562D02*
X241525Y9662D01*
X450087Y-134185D02*
Y-130638D01*
X449433Y-134838D02*
X450087Y-134185D01*
X447233Y-134838D02*
X449433D01*
X449796Y-136938D02*
X453596Y-133138D01*
X439496Y-136938D02*
X449796D01*
X436008Y-133450D02*
X439496Y-136938D01*
X443133Y-143938D02*
X445833Y-141238D01*
X458796Y-138638D02*
X461296Y-136138D01*
X429896Y-138638D02*
X458796D01*
X283433Y-143938D02*
X443133D01*
X283283Y-143788D02*
X283433Y-143938D01*
X448433Y-130638D02*
X450087D01*
X446433Y-128638D02*
X448433Y-130638D01*
X446433Y-128638D02*
Y-127687D01*
X445109Y-126363D02*
X446433Y-127687D01*
X442307Y-126363D02*
X445109D01*
X75670Y21162D02*
X76433D01*
X78259Y23862D02*
X80933Y21188D01*
X19433Y22799D02*
X20496Y23862D01*
X97581Y20362D02*
Y22410D01*
X98333Y23162D01*
X109196D01*
X65196Y-17241D02*
X69821Y-12616D01*
X70197D01*
X71427Y-11386D01*
Y-11011D01*
X106124Y6162D02*
X117499D01*
X120799Y9462D01*
X132596D01*
X283283Y-143788D02*
X293933Y-133138D01*
Y-115838D01*
X296373Y-113398D01*
X302098D01*
X313837Y-106198D02*
X319333Y-111694D01*
Y-138338D02*
Y-111694D01*
Y-138338D02*
X323733Y-142738D01*
X388033Y-127938D02*
Y-123438D01*
X378987Y-136985D02*
X388033Y-127938D01*
X374933Y-136985D02*
X378987D01*
X368433Y-129538D02*
X378033Y-119938D01*
X399496D01*
X412896Y-106538D01*
X401733Y-121138D02*
X415533Y-107338D01*
X384087Y-121138D02*
X401733D01*
X374933Y-130292D02*
X384087Y-121138D01*
X415533Y-107338D02*
Y-105275D01*
X401796Y-113975D02*
Y-97038D01*
X368433Y-137185D02*
X374733D01*
X399533Y-116238D02*
X401796Y-113975D01*
X412896Y-102638D02*
X415533Y-105275D01*
X368433Y-130492D02*
Y-129538D01*
X396096Y-142438D02*
Y-130216D01*
X411217Y-118489D02*
X426559D01*
X402596Y-127110D02*
X411217Y-118489D01*
X402596Y-135176D02*
Y-127110D01*
X411095Y-116914D02*
X426559D01*
X397296Y-130713D02*
X411095Y-116914D01*
X397296Y-141138D02*
Y-130713D01*
X396096Y-130216D02*
X415474Y-110838D01*
X80933Y8425D02*
Y21188D01*
Y8425D02*
X82496Y6862D01*
X76496Y17862D02*
X79733Y14625D01*
Y5625D02*
Y14625D01*
Y5625D02*
X83496Y1862D01*
X74370Y14988D02*
X78496Y10862D01*
Y1362D02*
Y10862D01*
X90233Y17762D02*
X105096D01*
X87987Y15515D02*
X90233Y17762D01*
X84496Y15515D02*
X87987D01*
X105096Y17762D02*
X106496Y16362D01*
X103307Y16050D02*
X104496Y14862D01*
X90685Y16050D02*
X103307D01*
X397696Y-141538D02*
X423396D01*
X397296Y-141138D02*
X397696Y-141538D01*
X423396D02*
X424396Y-140538D01*
X425696Y-142738D02*
X429796Y-138638D01*
X424396Y-140538D02*
Y-136238D01*
X410096Y-131502D02*
X412870Y-128728D01*
X410096Y-135838D02*
Y-131502D01*
X412870Y-128728D02*
Y-127255D01*
X402596Y-135176D02*
X404059Y-136638D01*
X437996Y-60838D02*
Y-39938D01*
X401796Y-97038D02*
X437996Y-60838D01*
X231744Y-71690D02*
Y-61186D01*
X228496Y-57938D02*
X231744Y-61186D01*
X181796Y-57938D02*
X228496D01*
X176496Y-52638D02*
X181796Y-57938D01*
X176496Y-18710D02*
X189668Y-5538D01*
X206696D01*
X176496Y-52638D02*
Y-18710D01*
X206696Y-5538D02*
X216796Y4562D01*
X236424D01*
X247224Y6362D02*
X433233D01*
X416196Y-5238D02*
X417896Y-3538D01*
X414868Y-5238D02*
X416196D01*
X413696Y-6410D02*
X414868Y-5238D01*
X413696Y-12338D02*
Y-6410D01*
Y-12338D02*
X423496Y-22138D01*
X407396Y-11738D02*
X420196Y-24538D01*
X407396Y-11738D02*
Y-3138D01*
X412596Y2062D01*
X467296Y6362D02*
X468433D01*
X309933Y-106198D02*
X313837D01*
X264996Y-15236D02*
Y-8838D01*
Y-15236D02*
X275399Y-25638D01*
X290493D01*
X311693Y-4438D01*
X371499D01*
X416699Y-49638D01*
X429881D01*
X435496Y-44024D01*
Y-34138D01*
X423496Y-22138D02*
X435496Y-34138D01*
X271396Y-19938D02*
Y-10238D01*
Y-19938D02*
X275896Y-24438D01*
X289996D01*
X311196Y-3238D01*
X371996D01*
X417196Y-48438D01*
X428484D01*
X421296Y-24538D02*
X434296Y-37538D01*
X420196Y-24538D02*
X421296D01*
X421796Y-28138D02*
X422696D01*
X433096Y-38538D01*
X427987Y-47238D02*
X433096Y-42130D01*
X418396Y-47238D02*
X427987D01*
X433096Y-42130D02*
Y-38538D01*
X373196Y-2038D02*
X418396Y-47238D01*
X299496Y-2038D02*
X373196D01*
X288796Y-12738D02*
X299496Y-2038D01*
X288796Y-20967D02*
Y-12738D01*
X286525Y-23238D02*
X288796Y-20967D01*
X282296Y-23238D02*
X286525D01*
X278996Y-19938D02*
X282296Y-23238D01*
X278996Y-19938D02*
Y-14638D01*
X325246Y-17088D02*
X345596Y-37438D01*
X311196Y-29838D02*
X319096Y-21938D01*
X310296Y-29838D02*
X311196D01*
X334196Y-9238D02*
X353913Y-28956D01*
Y-68690D02*
Y-28956D01*
X338996Y-137638D02*
X344596Y-132038D01*
X349196D01*
X406796Y-74438D01*
Y-62375D01*
X405178Y-60757D02*
X406796Y-62375D01*
X401433Y-60757D02*
X405178D01*
X401433Y-58197D02*
X405555D01*
X408996Y-61638D01*
Y-75450D02*
Y-61638D01*
X346807Y-137638D02*
X408996Y-75450D01*
X358296Y-68638D02*
Y-60038D01*
X331096Y-116338D02*
X359696D01*
X377896Y-98138D01*
Y-63238D01*
X374696Y-60038D02*
X377896Y-63238D01*
X358296Y-60038D02*
X374696D01*
X310692Y-131838D02*
X315596D01*
X309579Y-113398D02*
Y-106552D01*
X302098Y-113398D02*
Y-106650D01*
X309579Y-130725D02*
Y-122847D01*
X302098Y-130914D02*
Y-122847D01*
X362196Y-88138D02*
X366905Y-83429D01*
X321996Y-88138D02*
X362196D01*
X315996Y-82138D02*
X321996Y-88138D01*
X315996Y-82138D02*
Y-69238D01*
X303296Y-56538D02*
X315996Y-69238D01*
X303296Y-27238D02*
X310596Y-19938D01*
X303296Y-56538D02*
Y-27238D01*
X366905Y-83429D02*
Y-68690D01*
X345596Y-67738D02*
Y-37438D01*
X358244Y-68690D02*
X358296Y-68638D01*
X345252Y-68690D02*
Y-66433D01*
X311296Y-49938D02*
X313696D01*
X337896Y-74138D01*
X362296D01*
X362575Y-73860D01*
Y-68690D01*
X451496Y-101938D02*
Y-92538D01*
X447418Y-88460D02*
X451496Y-92538D01*
X441374Y-88460D02*
X447418D01*
X443696Y-102238D02*
Y-96538D01*
X443196Y-96038D02*
X443696Y-96538D01*
X439352Y-96038D02*
X443196D01*
X438702Y-95389D02*
X439352Y-96038D01*
X444096Y-102638D02*
X446196D01*
X443696Y-102238D02*
X444096Y-102638D01*
X438702Y-95389D02*
Y-94345D01*
X435492Y-91135D02*
X438702Y-94345D01*
X434496Y-91135D02*
X435492D01*
X432492Y-93138D02*
X434496Y-91135D01*
X441374Y-93638D02*
Y-88460D01*
X446779Y-99638D02*
Y-93926D01*
X455296Y-112929D02*
Y-109838D01*
X454296Y-108838D02*
X455296Y-109838D01*
X453646Y-114579D02*
X455296Y-112929D01*
X449433Y-114579D02*
X453646D01*
X455433Y-119485D02*
X459043D01*
X461296Y-121738D01*
Y-136138D02*
Y-121738D01*
X445596Y-106822D02*
X447280Y-105138D01*
X445596Y-109938D02*
Y-106822D01*
X422942Y-134785D02*
Y-130938D01*
Y-134785D02*
X424396Y-136238D01*
X431796D01*
X432858Y-135176D01*
X429709Y-133326D02*
Y-129513D01*
X432858Y-135176D02*
Y-129513D01*
X456779Y-135455D02*
Y-130638D01*
X436008Y-133450D02*
Y-129513D01*
X453596Y-133138D02*
Y-126838D01*
X454796Y-125638D01*
X456779D01*
X450087D02*
X450171Y-125554D01*
Y-123213D01*
X442307D02*
X450171D01*
X449433Y-119697D02*
X455221D01*
X448037D02*
X449433D01*
X446096Y-121638D02*
X448037Y-119697D01*
X442307Y-121638D02*
X446096D01*
X416250Y-132292D02*
X420496Y-136538D01*
X416250Y-132292D02*
Y-130938D01*
X422942D02*
X424372Y-129509D01*
Y-126363D01*
X426559D01*
X420293Y-124788D02*
X426559D01*
X420896Y-120738D02*
X421796Y-121638D01*
X426559D01*
X427374Y-99426D02*
Y-93138D01*
X420933Y-106275D02*
Y-104485D01*
Y-106275D02*
X422596Y-107938D01*
X424980D01*
X426380Y-109338D01*
X429671D01*
X431283Y-110951D01*
Y-113764D02*
Y-110951D01*
X427587Y-105138D02*
X427996Y-105548D01*
Y-108138D02*
Y-105548D01*
Y-108138D02*
X431120D01*
X432858Y-109876D01*
Y-113764D02*
Y-109876D01*
X434279Y-105138D02*
Y-99638D01*
X440587Y-105138D02*
Y-100138D01*
Y-108048D02*
Y-105138D01*
X437583Y-111052D02*
X440587Y-108048D01*
X437583Y-113764D02*
Y-111052D01*
X436008Y-113764D02*
Y-106867D01*
X468433Y-25138D02*
X472396Y-29101D01*
Y-52838D02*
Y-29101D01*
X468433Y-56801D02*
X472396Y-52838D01*
X468433Y-57138D02*
Y-56801D01*
Y-57138D02*
X472286Y-60991D01*
Y-91786D02*
Y-60991D01*
X468433Y-95638D02*
X472286Y-91786D01*
X468433Y-95638D02*
X472596Y-99801D01*
Y-125938D02*
Y-99801D01*
X470396Y-128138D02*
X472596Y-125938D01*
X468433Y-128138D02*
X470396D01*
X75799Y-3638D02*
X88496D01*
X131996Y-2638D02*
X132996Y-3638D01*
Y-5967D02*
Y-3638D01*
Y-5967D02*
X134168Y-7138D01*
X136168D01*
X137168Y-6138D01*
X138824D01*
X141624Y-8938D01*
X147296D01*
X74370Y14988D02*
Y19862D01*
X75670Y21162D01*
X70227Y-10889D02*
Y-9211D01*
X68021Y-11416D02*
X69700D01*
X70227Y-10889D01*
X63996Y-22138D02*
Y-15441D01*
X70227Y-9211D02*
X75799Y-3638D01*
X63996Y-15441D02*
X68021Y-11416D01*
X88496Y-3638D02*
X94496Y2362D01*
X99496D01*
X59996Y-26138D02*
X63996Y-22138D01*
X108325Y8362D02*
X112996D01*
X107325Y7362D02*
X108325Y8362D01*
X105668Y7362D02*
X107325D01*
X104496Y8533D02*
X105668Y7362D01*
X104496Y8533D02*
Y14862D01*
X106496Y9362D02*
Y16362D01*
X437583Y-129513D02*
Y-124788D01*
X458433Y5464D02*
Y6362D01*
X449430Y-3538D02*
X458433Y5464D01*
X417896Y-3538D02*
X449430D01*
X453333Y9062D02*
X456333Y12062D01*
X433233Y6362D02*
Y9662D01*
X434433Y10862D01*
X445333D01*
X448433Y7762D01*
Y6362D02*
Y7762D01*
D63*
X62679Y-29930D02*
G03*
X62548Y-29992I575J-1385D01*
G01*
X61445Y-30577D02*
G03*
X61539Y-30531I-684J1501D01*
G01*
X59484Y-31471D02*
G03*
X58242Y-34651I1016J-2230D01*
G01*
X56862Y-36738D02*
G03*
X58242Y-34651I-0J1500D01*
G01*
X68617Y-27638D02*
G03*
X68053Y-27749I0J-1500D01*
G01*
X62679Y-29930D02*
X62686Y-29927D01*
X61539Y-30531D02*
X62548Y-29992D01*
X44333Y-36738D02*
X56862D01*
X62686Y-29927D02*
X68053Y-27749D01*
X59484Y-31471D02*
X61445Y-30577D01*
X68617Y-27639D02*
X68617Y-27638D01*
X102996D01*
X82783Y-142188D02*
X268446D01*
X63833Y-123238D02*
X82783Y-142188D01*
X268446D02*
X283396Y-127238D01*
X-7104Y-36738D02*
X44333D01*
Y-46438D02*
X48333Y-50438D01*
Y-61938D02*
Y-50438D01*
X44333Y-46438D02*
Y-36738D01*
X-15004Y-44638D02*
X-7104Y-36738D01*
X413596Y-60838D02*
X432733D01*
X273933Y-59638D02*
X283396D01*
Y-127238D02*
Y-59638D01*
X408396Y-55638D02*
X413596Y-60838D01*
X401433Y-55638D02*
X408396D01*
D64*
X73933Y-42479D02*
G03*
X73555Y-41810I-800J-11D01*
G01*
X151543Y8224D02*
X155976Y3791D01*
X165304D02*
X186275Y24762D01*
X155976Y3791D02*
X165304D01*
X77400Y-113800D02*
X87300Y-103900D01*
Y-70600D01*
X87800Y-70100D01*
X88269Y-64300D02*
X97300D01*
X87800Y-64769D02*
X88269Y-64300D01*
X87800Y-70100D02*
Y-64769D01*
X99246Y-72690D02*
Y-66246D01*
X97300Y-64300D02*
X99246Y-66246D01*
X84200Y-8000D02*
X88700Y-8800D01*
X73933Y-42479D02*
X73933Y-42484D01*
X60500Y-33700D02*
X73555Y-41810D01*
X73933Y-58446D02*
Y-42484D01*
X310396Y14262D02*
X323048D01*
X325796Y-8038D02*
X326696Y-7138D01*
X325796Y-11838D02*
Y-8138D01*
X305839Y-136196D02*
X309931D01*
X190055Y-130075D02*
Y-122075D01*
X157433Y-126075D02*
X169272D01*
X220996Y-127138D02*
X228796D01*
X385397Y-65875D02*
X401433D01*
X381096Y-70175D02*
X385397Y-65875D01*
X381096Y-96838D02*
Y-70175D01*
X173819Y-134761D02*
X177296Y-138238D01*
X-2367Y-71864D02*
Y-60638D01*
Y-71864D02*
X-2252Y-73038D01*
X4133Y-73201D02*
Y-65938D01*
X2496Y23362D02*
Y25425D01*
X659Y25525D02*
X165833D01*
X65033Y-67775D02*
X69089Y-71831D01*
X52333Y-41738D02*
X65033Y-54438D01*
Y-67775D02*
Y-54438D01*
X59996Y-27638D02*
Y-26138D01*
X455033Y24762D02*
X457933Y21862D01*
X450623Y24762D02*
X455033D01*
X440623D02*
X445243D01*
X439570Y25814D02*
X440623Y24762D01*
X436296Y25814D02*
X439570D01*
X435243Y24762D02*
X436296Y25814D01*
X186275Y24762D02*
X435243D01*
X449570Y25814D02*
X450623Y24762D01*
X446296Y25814D02*
X449570D01*
X445243Y24762D02*
X446296Y25814D01*
X151543Y8224D02*
Y13814D01*
X145496Y19862D02*
X151543Y13814D01*
X109196Y23162D02*
X112996Y19362D01*
X206996Y-106138D02*
X227413Y-85721D01*
X194433Y-106138D02*
X206996D01*
X97181Y10110D02*
Y12462D01*
X94842Y7771D02*
X97181Y10110D01*
X94842Y6362D02*
Y7771D01*
X69089Y-71831D02*
X73933D01*
X305896Y-136238D02*
X309892D01*
X301974D02*
X305896D01*
X20433Y-10375D02*
Y-5138D01*
Y-10375D02*
X30096Y-20038D01*
X54296D01*
X62818Y-11516D01*
X64623D01*
X67001Y-9138D01*
X67555D01*
X441896Y-57538D02*
Y-37138D01*
X415696Y-10938D02*
X441896Y-37138D01*
X415696Y-10938D02*
Y-7238D01*
X173819Y-134761D02*
Y-129816D01*
X188496Y-100038D02*
X205496D01*
X223083Y-82452D01*
Y-71690D01*
X345296Y-6538D02*
X346096Y-5738D01*
X326696Y-7138D02*
X341303D01*
X359803Y-25638D01*
X346096Y-5738D02*
X358596D01*
X373189Y-20331D01*
Y-25638D02*
Y-20331D01*
X329944Y13862D02*
X338950D01*
X346642Y12962D02*
X369996D01*
X217196Y-3338D02*
X232803Y-18946D01*
X246189Y-13946D02*
X258396Y-1738D01*
X246189Y-28638D02*
Y-13946D01*
X232803Y-28638D02*
Y-18946D01*
X206796Y14362D02*
X212696Y20262D01*
X198181Y14362D02*
X206796D01*
X184896D02*
X191685D01*
X183996Y13462D02*
X184896Y14362D01*
X183996Y9208D02*
Y13462D01*
Y2515D02*
X189350D01*
X193396Y6562D01*
X235596D01*
X228796Y-127138D02*
X269760Y-86175D01*
Y-69875D01*
X207496Y-137638D02*
X214396Y-130738D01*
X228316D01*
X279078Y-79977D01*
Y-64757D01*
X273933D02*
X279078D01*
X273933Y-62198D02*
X280155D01*
X281396Y-63438D01*
Y-79638D02*
Y-63438D01*
X223396Y-137638D02*
X281396Y-79638D01*
X215307Y-137638D02*
X223396D01*
X173996Y-10138D02*
X180996Y-3138D01*
X178496Y-19638D02*
X211496D01*
X327596Y-137638D02*
Y-136138D01*
X333796Y-129938D01*
X347996D01*
X381096Y-96838D01*
X305839Y-100296D02*
X306622Y-101079D01*
X309933D01*
X301933Y-99792D02*
X305335D01*
X305839Y-100296D01*
Y-113398D02*
Y-100296D01*
X309892Y-136238D02*
X309933Y-136197D01*
X309931Y-136196D02*
X309933Y-136197D01*
X325796Y-11838D02*
X349583Y-35625D01*
Y-68690D02*
Y-35625D01*
X65296Y16162D02*
Y23862D01*
X62933Y13799D02*
X65296Y16162D01*
X-3004Y7362D02*
Y21862D01*
X659Y25525D01*
X165833D02*
X169496Y21862D01*
Y15362D02*
Y21862D01*
X165496Y11362D02*
X169496Y15362D01*
X165496Y9862D02*
Y11362D01*
X137788Y5362D02*
X150496D01*
X136166Y6984D02*
X137788Y5362D01*
X134426Y6984D02*
X136166D01*
X132804Y5362D02*
X134426Y6984D01*
X132496Y5362D02*
X132804D01*
X148996Y362D02*
X172596Y-23238D01*
Y-53718D02*
Y-23238D01*
Y-53718D02*
X173996Y-55118D01*
Y-129638D02*
Y-55118D01*
X173819Y-129816D02*
X173996Y-129638D01*
X169272Y-129816D02*
X173819D01*
X86996Y-1638D02*
X88150Y-485D01*
X70807Y9736D02*
X75996D01*
X112996Y8362D02*
Y19362D01*
X84396Y20408D02*
X90495D01*
X227413Y-85721D02*
Y-71690D01*
X163083Y-129816D02*
X169272D01*
X156937Y-125579D02*
Y-122138D01*
Y-128788D02*
Y-125579D01*
X156150Y-129575D02*
X156937Y-128788D01*
Y-125579D02*
X157433Y-126075D01*
X178720Y-129816D02*
X184677D01*
X178720Y-122335D02*
X184677D01*
X184937Y-122075D02*
Y-113198D01*
X227413Y-71690D02*
X228496Y-72772D01*
X269760Y-69875D02*
X273933D01*
X173996Y-53138D02*
Y-10138D01*
Y-53138D02*
X180496Y-59638D01*
X214496D01*
X218752Y-63894D01*
Y-71690D02*
Y-63894D01*
X211496Y-19638D02*
X240406Y-48548D01*
Y-71690D02*
Y-48548D01*
X178996Y-49638D02*
X185996Y-56638D01*
X234496D01*
X236075Y-58217D01*
Y-71690D02*
Y-58217D01*
X61496Y-9138D02*
X62437D01*
X55496Y-15138D02*
X61496Y-9138D01*
X30433Y-15138D02*
X55496D01*
X62933Y-8642D02*
Y1862D01*
X67555Y-9138D02*
Y-8079D01*
X70807Y-4827D01*
Y1862D01*
X27677Y-8052D02*
Y18106D01*
X19433Y19862D02*
Y22799D01*
Y7299D02*
Y19862D01*
X13110Y976D02*
X19433Y7299D01*
X13110Y-8052D02*
Y976D01*
X62933Y9736D02*
Y13799D01*
X88150Y-485D02*
Y6362D01*
D65*
X468833Y-142201D02*
D03*
Y20362D02*
D03*
X-1Y-1D02*
D03*
X-14667Y-136638D02*
D03*
D66*
X434433Y-121638D02*
D03*
D67*
X292996Y11362D02*
Y23062D01*
X420933Y-92901D02*
X424296Y-89538D01*
X420933Y-97792D02*
Y-92901D01*
X305839Y-136196D02*
Y-113398D01*
D68*
X6733Y-139538D02*
D03*
X16733D02*
D03*
X26733D02*
D03*
X36733D02*
D03*
X46733D02*
D03*
X-15067Y-13638D02*
D03*
Y-3638D02*
D03*
Y6362D02*
D03*
Y16362D02*
D03*
X165496Y19862D02*
D03*
Y9862D02*
D03*
X155496Y19862D02*
D03*
Y9862D02*
D03*
X145496Y19862D02*
D03*
X-15004Y-54638D02*
D03*
X19433Y19862D02*
D03*
X29433D02*
D03*
X39433D02*
D03*
X437933Y21862D02*
D03*
X447933D02*
D03*
X338996Y-137638D02*
D03*
X346807D02*
D03*
X409233Y-136738D02*
D03*
X401422D02*
D03*
X468433Y-75638D02*
D03*
Y-85638D02*
D03*
Y-108138D02*
D03*
Y-118138D02*
D03*
X448433Y6362D02*
D03*
X458433D02*
D03*
X468433D02*
D03*
X207496Y-137638D02*
D03*
X215307D02*
D03*
X468433Y-5138D02*
D03*
Y-15138D02*
D03*
Y-37138D02*
D03*
Y-47138D02*
D03*
X388433Y16362D02*
D03*
X282996Y11362D02*
D03*
D69*
X56733Y-139538D02*
D03*
X145496Y9862D02*
D03*
X9433Y19862D02*
D03*
X457933Y21862D02*
D03*
X438433Y6362D02*
D03*
X398433Y16362D02*
D03*
X292996Y11362D02*
D03*
D70*
X-15067Y-23638D02*
D03*
X-15004Y-44638D02*
D03*
X468433Y-95638D02*
D03*
Y-128138D02*
D03*
Y-25138D02*
D03*
Y-57138D02*
D03*
D71*
X144696Y-53238D02*
D03*
Y-58238D02*
D03*
Y-63238D02*
D03*
Y-68238D02*
D03*
Y-73238D02*
D03*
X149696D02*
D03*
Y-68238D02*
D03*
Y-63238D02*
D03*
Y-58238D02*
D03*
Y-53238D02*
D03*
X30433Y-15138D02*
D03*
X20433Y-5138D02*
D03*
X10433Y-15138D02*
D03*
X27677Y-8052D02*
D03*
X13110D02*
D03*
D72*
X393953Y-60757D02*
D03*
X266453Y-64757D02*
D03*
D73*
X402417Y-71780D02*
D03*
Y-49733D02*
D03*
X274917Y-75780D02*
D03*
Y-53733D02*
D03*
D74*
X157685Y-102780D02*
D03*
X157922Y5891D02*
D03*
X149100Y-115000D02*
D03*
X146099Y-11814D02*
D03*
X77196Y-114038D02*
D03*
X158400Y-24000D02*
D03*
X79986Y-13129D02*
D03*
X88700Y-8800D02*
D03*
X79700Y-8400D02*
D03*
X84200Y-8000D02*
D03*
X60500Y-33700D02*
D03*
X800Y-50700D02*
D03*
X17800Y-115200D02*
D03*
X12787Y-71567D02*
D03*
X20300Y-92300D02*
D03*
X42700Y-99400D02*
D03*
X37887Y-114467D02*
D03*
X446233Y-113538D02*
D03*
X-6567Y-125238D02*
D03*
X16233Y-110138D02*
D03*
X75633Y-123038D02*
D03*
X120533Y-138538D02*
D03*
X177296D02*
D03*
X180333Y-83938D02*
D03*
X49333Y-79338D02*
D03*
X48333Y-61938D02*
D03*
X40589Y-51083D02*
D03*
X-2367Y-60638D02*
D03*
X4133Y-65938D02*
D03*
X46233Y-119938D02*
D03*
X54833Y-102938D02*
D03*
X39033Y-43138D02*
D03*
X2496Y23362D02*
D03*
X65696Y-108338D02*
D03*
X147933Y-9575D02*
D03*
X138296Y-1638D02*
D03*
X84233Y-133338D02*
D03*
X59733Y-98038D02*
D03*
X185096Y-113238D02*
D03*
X241833Y12662D02*
D03*
X447233Y-134838D02*
D03*
X445996Y-141238D02*
D03*
X76433Y21162D02*
D03*
X132596Y9462D02*
D03*
X388033Y-123438D02*
D03*
X412896Y-102638D02*
D03*
Y-106538D02*
D03*
X330996Y-116338D02*
D03*
X432733Y-60738D02*
D03*
X194433Y-106038D02*
D03*
X190096Y-125938D02*
D03*
X406896Y2962D02*
D03*
X168433Y-136775D02*
D03*
X269696Y-119838D02*
D03*
X406896Y-125638D02*
D03*
X438096Y-39938D02*
D03*
X399533Y-116238D02*
D03*
X441896Y-57538D02*
D03*
X415696Y-7238D02*
D03*
X443996Y-90638D02*
D03*
X450696Y-48738D02*
D03*
X188396Y-100238D02*
D03*
X159681Y-125838D02*
D03*
X276446Y-113138D02*
D03*
X345296Y-6538D02*
D03*
X310596Y14362D02*
D03*
X369996Y12962D02*
D03*
X325896Y-8138D02*
D03*
X217396Y-3238D02*
D03*
X212696Y20462D02*
D03*
X235596Y6562D02*
D03*
X258396Y-1738D02*
D03*
X264896Y-8938D02*
D03*
X220996Y-127438D02*
D03*
X260296Y-7538D02*
D03*
X273596Y-14138D02*
D03*
X271596Y-10038D02*
D03*
X278996Y-14638D02*
D03*
X285696Y-21238D02*
D03*
X424196Y-38138D02*
D03*
X245296Y5462D02*
D03*
X187696Y-15738D02*
D03*
X206896Y-9638D02*
D03*
X180796Y-2938D02*
D03*
X178896Y-49738D02*
D03*
X178496Y-19538D02*
D03*
X421796Y-28138D02*
D03*
X421296Y-32538D02*
D03*
X429496Y-40638D02*
D03*
X426396Y-35238D02*
D03*
X420196Y-24538D02*
D03*
X423496Y-22138D02*
D03*
X319096Y-21938D02*
D03*
X310296Y-29838D02*
D03*
X451996Y-61738D02*
D03*
X400396Y-14138D02*
D03*
X409296Y10362D02*
D03*
X410796Y-7938D02*
D03*
X421696Y-9938D02*
D03*
X429296Y-6838D02*
D03*
X438896Y-938D02*
D03*
X448296Y-36038D02*
D03*
X452396Y-29738D02*
D03*
X454996Y-11438D02*
D03*
X443996Y-6338D02*
D03*
X327596Y-137738D02*
D03*
X315596Y-131838D02*
D03*
X305896Y-136238D02*
D03*
X310596Y-19938D02*
D03*
X334196Y-9238D02*
D03*
X325196Y-17138D02*
D03*
X386296Y-136838D02*
D03*
X446650Y-102738D02*
D03*
X451496Y-102038D02*
D03*
X453780Y-108838D02*
D03*
X429896Y-138638D02*
D03*
X429796Y-133538D02*
D03*
X456696Y-135538D02*
D03*
X421396Y-121238D02*
D03*
X420496Y-136538D02*
D03*
X451996Y-84838D02*
D03*
X438696Y-87638D02*
D03*
X311296Y-49938D02*
D03*
X424296Y-89538D02*
D03*
X86996Y-1638D02*
D03*
X83496Y1862D02*
D03*
X75996Y9736D02*
D03*
X82496Y6862D02*
D03*
X137996Y-8138D02*
D03*
X78496Y1362D02*
D03*
X76496Y17862D02*
D03*
X420433Y16925D02*
D03*
X116933Y8425D02*
D03*
X-3067Y7425D02*
D03*
X119933Y23425D02*
D03*
X148933Y425D02*
D03*
X150433Y5925D02*
D03*
X59933Y-27075D02*
D03*
X50496Y4362D02*
D03*
X99496Y2362D02*
D03*
X112996Y8362D02*
D03*
X106496Y9362D02*
D03*
X132496Y5362D02*
D03*
X134996Y-5138D02*
D03*
D75*
X436598Y-123804D02*
D03*
X432268D02*
D03*
X436598Y-119473D02*
D03*
X432268D02*
D03*
M02*
