G04*
G04 #@! TF.GenerationSoftware,Altium Limited,Altium Designer,21.9.2 (33)*
G04*
G04 Layer_Physical_Order=3*
G04 Layer_Color=128*
%FSLAX25Y25*%
%MOIN*%
G70*
G04*
G04 #@! TF.SameCoordinates,4219B8C6-809A-426F-B61B-8FBD35EC1222*
G04*
G04*
G04 #@! TF.FilePolarity,Negative*
G04*
G01*
G75*
%ADD10C,0.01000*%
%ADD37C,0.05000*%
%ADD76C,0.04000*%
%ADD77C,0.07543*%
G04:AMPARAMS|DCode=78|XSize=95.433mil|YSize=95.433mil|CornerRadius=0mil|HoleSize=0mil|Usage=FLASHONLY|Rotation=0.000|XOffset=0mil|YOffset=0mil|HoleType=Round|Shape=Relief|Width=10mil|Gap=10mil|Entries=4|*
%AMTHD78*
7,0,0,0.09543,0.07543,0.01000,45*
%
%ADD78THD78*%
G04:AMPARAMS|DCode=79|XSize=85.591mil|YSize=85.591mil|CornerRadius=0mil|HoleSize=0mil|Usage=FLASHONLY|Rotation=0.000|XOffset=0mil|YOffset=0mil|HoleType=Round|Shape=Relief|Width=10mil|Gap=10mil|Entries=4|*
%AMTHD79*
7,0,0,0.08559,0.06559,0.01000,45*
%
%ADD79THD79*%
%ADD80C,0.06559*%
G04:AMPARAMS|DCode=81|XSize=79.685mil|YSize=79.685mil|CornerRadius=0mil|HoleSize=0mil|Usage=FLASHONLY|Rotation=0.000|XOffset=0mil|YOffset=0mil|HoleType=Round|Shape=Relief|Width=10mil|Gap=10mil|Entries=4|*
%AMTHD81*
7,0,0,0.07969,0.05969,0.01000,45*
%
%ADD81THD81*%
%ADD82C,0.05969*%
%ADD83C,0.09118*%
%ADD84C,0.07740*%
%ADD85C,0.05500*%
G04:AMPARAMS|DCode=86|XSize=70mil|YSize=70mil|CornerRadius=0mil|HoleSize=0mil|Usage=FLASHONLY|Rotation=0.000|XOffset=0mil|YOffset=0mil|HoleType=Round|Shape=Relief|Width=10mil|Gap=10mil|Entries=4|*
%AMTHD86*
7,0,0,0.07000,0.05000,0.01000,45*
%
%ADD86THD86*%
%ADD87C,0.06800*%
G04:AMPARAMS|DCode=88|XSize=75mil|YSize=75mil|CornerRadius=0mil|HoleSize=0mil|Usage=FLASHONLY|Rotation=0.000|XOffset=0mil|YOffset=0mil|HoleType=Round|Shape=Relief|Width=10mil|Gap=10mil|Entries=4|*
%AMTHD88*
7,0,0,0.07500,0.05500,0.01000,45*
%
%ADD88THD88*%
%ADD90C,0.04787*%
D10*
X173796Y-148238D02*
Y26562D01*
X288896Y-146738D02*
Y28062D01*
X393996Y-147138D02*
Y27662D01*
D37*
X157685Y-102780D02*
D03*
X157922Y5891D02*
D03*
X149100Y-115000D02*
D03*
X77196Y-114038D02*
D03*
X158400Y-24000D02*
D03*
X79986Y-13129D02*
D03*
X88700Y-8800D02*
D03*
X79700Y-8400D02*
D03*
X84200Y-8000D02*
D03*
X60500Y-33700D02*
D03*
X17800Y-115200D02*
D03*
X12787Y-71567D02*
D03*
X20300Y-92300D02*
D03*
X42700Y-99400D02*
D03*
X446233Y-113538D02*
D03*
X-6567Y-125238D02*
D03*
X16233Y-110138D02*
D03*
X75633Y-123038D02*
D03*
X120533Y-138538D02*
D03*
X177296D02*
D03*
X180333Y-83938D02*
D03*
X49333Y-79338D02*
D03*
X48333Y-61938D02*
D03*
X40589Y-51083D02*
D03*
X-2367Y-60638D02*
D03*
X4133Y-65938D02*
D03*
X46233Y-119938D02*
D03*
X54833Y-102938D02*
D03*
X39033Y-43138D02*
D03*
X2496Y23362D02*
D03*
X65696Y-108338D02*
D03*
X147933Y-9575D02*
D03*
X138296Y-1638D02*
D03*
X84233Y-133338D02*
D03*
X59733Y-98038D02*
D03*
X447233Y-134838D02*
D03*
X445996Y-141238D02*
D03*
X76433Y21162D02*
D03*
X132596Y9462D02*
D03*
X412896Y-102638D02*
D03*
Y-106538D02*
D03*
X432733Y-60738D02*
D03*
X194433Y-106038D02*
D03*
X190096Y-125938D02*
D03*
X406896Y2962D02*
D03*
X168433Y-136775D02*
D03*
X406896Y-125638D02*
D03*
X438096Y-39938D02*
D03*
X399533Y-116238D02*
D03*
X441896Y-57538D02*
D03*
X415696Y-7238D02*
D03*
X443996Y-90638D02*
D03*
X450696Y-48738D02*
D03*
X188396Y-100238D02*
D03*
X159681Y-125838D02*
D03*
X276446Y-113138D02*
D03*
X345296Y-6538D02*
D03*
X310596Y14362D02*
D03*
X369996Y12962D02*
D03*
X325896Y-8138D02*
D03*
X217396Y-3238D02*
D03*
X212696Y20462D02*
D03*
X235596Y6562D02*
D03*
X258396Y-1738D02*
D03*
X264896Y-8938D02*
D03*
X220996Y-127438D02*
D03*
X271596Y-10038D02*
D03*
X278996Y-14638D02*
D03*
X285696Y-21238D02*
D03*
X424196Y-38138D02*
D03*
X245296Y5462D02*
D03*
X187696Y-15738D02*
D03*
X206896Y-9638D02*
D03*
X180796Y-2938D02*
D03*
X178896Y-49738D02*
D03*
X178496Y-19538D02*
D03*
X421796Y-28138D02*
D03*
X421296Y-32538D02*
D03*
X429496Y-40638D02*
D03*
X426396Y-35238D02*
D03*
X420196Y-24538D02*
D03*
X423496Y-22138D02*
D03*
X319096Y-21938D02*
D03*
X310296Y-29838D02*
D03*
X451996Y-61738D02*
D03*
X400396Y-14138D02*
D03*
X410796Y-7938D02*
D03*
X421696Y-9938D02*
D03*
X429296Y-6838D02*
D03*
X448296Y-36038D02*
D03*
X452396Y-29738D02*
D03*
X454996Y-11438D02*
D03*
X443996Y-6338D02*
D03*
X327596Y-137738D02*
D03*
X305896Y-136238D02*
D03*
X310596Y-19938D02*
D03*
X334196Y-9238D02*
D03*
X325196Y-17138D02*
D03*
X386296Y-136838D02*
D03*
X446650Y-102738D02*
D03*
X451496Y-102038D02*
D03*
X453780Y-108838D02*
D03*
X429896Y-138638D02*
D03*
X429796Y-133538D02*
D03*
X456696Y-135538D02*
D03*
X421396Y-121238D02*
D03*
X420496Y-136538D02*
D03*
X451996Y-84838D02*
D03*
X311296Y-49938D02*
D03*
X424296Y-89538D02*
D03*
X86996Y-1638D02*
D03*
X83496Y1862D02*
D03*
X75996Y9736D02*
D03*
X82496Y6862D02*
D03*
X137996Y-8138D02*
D03*
X78496Y1362D02*
D03*
X76496Y17862D02*
D03*
X420433Y16925D02*
D03*
X-3067Y7425D02*
D03*
X119933Y23425D02*
D03*
X148933Y425D02*
D03*
X150433Y5925D02*
D03*
X59933Y-27075D02*
D03*
X99496Y2362D02*
D03*
X112996Y8362D02*
D03*
X106496Y9362D02*
D03*
X132496Y5362D02*
D03*
X134996Y-5138D02*
D03*
D76*
X-23567Y-147138D02*
X476433D01*
Y27862D01*
X-23567D02*
X476433D01*
X-23567Y-147138D02*
Y27862D01*
D77*
X6733Y-139538D02*
D03*
X16733D02*
D03*
X26733D02*
D03*
X36733D02*
D03*
X56733D02*
D03*
X-15067Y-23638D02*
D03*
Y-13638D02*
D03*
Y-3638D02*
D03*
Y16362D02*
D03*
X165496Y19862D02*
D03*
Y9862D02*
D03*
X155496Y19862D02*
D03*
Y9862D02*
D03*
X145496D02*
D03*
X-15004Y-54638D02*
D03*
Y-44638D02*
D03*
X9433Y19862D02*
D03*
X19433D02*
D03*
X29433D02*
D03*
X437933Y21862D02*
D03*
X447933D02*
D03*
X457933D02*
D03*
X338996Y-137638D02*
D03*
X346807D02*
D03*
X409233Y-136738D02*
D03*
X401422D02*
D03*
X468433Y-75638D02*
D03*
Y-85638D02*
D03*
Y-95638D02*
D03*
Y-108138D02*
D03*
Y-118138D02*
D03*
Y-128138D02*
D03*
X438433Y6362D02*
D03*
X448433D02*
D03*
X458433D02*
D03*
X468433D02*
D03*
X207496Y-137638D02*
D03*
X215307D02*
D03*
X468433Y-5138D02*
D03*
Y-15138D02*
D03*
Y-25138D02*
D03*
Y-37138D02*
D03*
Y-47138D02*
D03*
Y-57138D02*
D03*
X388433Y16362D02*
D03*
X398433D02*
D03*
X282996Y11362D02*
D03*
X292996D02*
D03*
D78*
X46733Y-139538D02*
D03*
X-15067Y6362D02*
D03*
X145496Y19862D02*
D03*
X39433D02*
D03*
D79*
X144696Y-68238D02*
D03*
D80*
Y-53238D02*
D03*
Y-58238D02*
D03*
Y-63238D02*
D03*
Y-73238D02*
D03*
X149696D02*
D03*
Y-68238D02*
D03*
Y-63238D02*
D03*
Y-58238D02*
D03*
Y-53238D02*
D03*
D81*
X20433Y-5138D02*
D03*
D82*
X30433Y-15138D02*
D03*
X10433D02*
D03*
X27677Y-8052D02*
D03*
X13110D02*
D03*
D83*
X393953Y-60757D02*
D03*
X266453Y-64757D02*
D03*
D84*
X402417Y-71780D02*
D03*
Y-49733D02*
D03*
X274917Y-75780D02*
D03*
Y-53733D02*
D03*
D85*
X145490Y-3113D02*
D03*
X75300Y-10900D02*
D03*
X154996Y-13638D02*
D03*
X52333Y-41738D02*
D03*
X61496Y-19638D02*
D03*
D86*
X146099Y-11814D02*
D03*
X800Y-50700D02*
D03*
X37887Y-114467D02*
D03*
X185096Y-113238D02*
D03*
X241833Y12662D02*
D03*
X388033Y-123438D02*
D03*
X330996Y-116338D02*
D03*
X269696Y-119838D02*
D03*
X260296Y-7538D02*
D03*
X273596Y-14138D02*
D03*
X409296Y10362D02*
D03*
X438896Y-938D02*
D03*
X315596Y-131838D02*
D03*
X438696Y-87638D02*
D03*
X116933Y8425D02*
D03*
X50496Y4362D02*
D03*
D87*
X63833Y-123238D02*
D03*
D88*
X52996Y-33888D02*
D03*
D90*
X436598Y-123804D02*
D03*
X432268D02*
D03*
X436598Y-119473D02*
D03*
X432268D02*
D03*
M02*
