M48
;Layer_Color=9474304
;FILE_FORMAT=2:5
INCH,TZ
;TYPE=PLATED
T1F00S00C0.00787
T2F00S00C0.01000
T3F00S00C0.01500
T4F00S00C0.01968
T5F00S00C0.02559
T6F00S00C0.02800
T7F00S00C0.03543
T8F00S00C0.03740
T9F00S00C0.05118
%
T01
X375535Y15835
X379865
Y20165
X375535
T02
X329563Y2800
X331300Y16200
X342800Y23400
X350163Y14000
X364663Y18400
X363763Y3100
X373163Y1000
X373063Y6100
X390500Y4800
X389263Y-1600
X399963Y4100
X397046Y30800
X394763Y37600
X389916Y36900
X389500Y26100
X387263Y49000
X381963Y52000
X395263Y54800
Y77900
X385163Y82100
X376000Y78900
X372763Y99000
X367463Y101500
X369663Y104400
X364563Y107100
X381363Y99700
X391563Y103600
X395663Y109900
X393963Y90900
X367563Y50100
X356163Y37000
Y33100
X274263Y23300
X270863Y1900
X258863Y7800
X249163Y3400
X219713Y26500
X212963Y19800
X164263Y12200
X133363Y13700
X128363Y26400
X131663Y39400
X137700Y33600
X254563Y89700
X253563Y109800
X122163Y89900
X103200Y105063
X95900Y45600
X98500Y43000
X101000Y32500
X102948Y13800
X111700Y2863
X120563Y1100
X63800
X27500Y6300
X18900Y16600
X8963Y31300
X-1900Y36700
X3000Y41600
X-7400Y60300
X-8400Y77700
X-16144Y88556
X-17700Y96500
X-11100Y105350
X10700Y104063
X-10500Y19700
X123600Y55700
X-40500Y29500
X-63300Y14400
X-59100Y79000
X-52600Y73700
X-59800Y147063
X-54237Y163000
X-6237Y144000
X19263Y149374
X19763Y157500
X19700Y160800
X25763Y146500
X26763Y141500
X21763Y141000
X30263Y138000
Y128500
X25263Y129000
X26200Y123063
X31200
X42763Y142000
X49763Y149000
X56263Y148000
X60200Y148063
X75863Y149100
X75763Y145000
X78563Y144523
X81563Y138000
X81263Y131500
X78263Y134500
X75263Y121600
X88263Y128500
X91200Y130063
X92200Y140063
X93700Y145563
X102250Y145713
X124063Y136700
X121763Y120100
X63200Y163063
X3200Y112563
X130963Y123900
X150163Y130000
X160663Y136400
X178863Y146200
X188563Y145100
X185100Y152300
X201663Y137900
X203563Y132100
X208163Y130700
X214863Y129600
X216863Y125500
X222263Y125000
X228963Y118400
X253863Y119700
X262363Y117700
X268463Y122500
X269163Y131500
X277463Y130400
X253863Y154000
X155963Y160100
X288563Y133100
X313263Y152600
X352563Y150000
X350163Y142600
X354063Y131700
X358963Y132400
X364963Y129700
X372563Y132800
X387263Y133300
X382163Y138700
X398263Y128200
X366763Y117500
X363463Y115100
X365063Y111500
X343663Y125500
X363700Y156563
T03
X-4400Y97900
X-3737Y105750
X4763Y120000
X19263Y127000
X88763Y136500
X98263Y126000
T04
X-46300Y124500
X-43623Y131587
X-36300Y134500
X-29056Y131587
X-26300Y124500
T05
X87963Y66400
Y71400
Y76400
Y81400
Y86400
X92963
Y81400
Y76400
Y71400
Y66400
T06
X7100Y16400
T07
X290074Y2000
X344689Y2900
X352500
X411700Y11500
Y21500
Y31500
Y44000
Y54000
Y64000
Y82500
Y92500
Y102500
X282263Y2000
X158574
X150763
X0Y100
X-10000
X-20000
X-30000
X-40000
X-50000
X-71000Y35900
Y45900
X-71737Y85000
Y95000
X-71800Y116000
Y126000
Y136000
Y146000
Y156000
X-47300Y159500
X-37300
X-27300
X-17300
X88763
X98763
X108763
Y149500
X98763
X88763
X226263Y151000
X236263
X331700Y156000
X341700
X381200Y161500
X391200
X401200
X401700Y146000
X391700
X381700
X411700
Y134500
Y124500
Y114500
T08
X345684Y67858
Y89906
X218184Y85905
Y63858
T09
X337220Y78882
X209720Y74882
M30
