G04*
G04 #@! TF.GenerationSoftware,Altium Limited,Altium Designer,21.6.4 (81)*
G04*
G04 Layer_Physical_Order=4*
G04 Layer_Color=16711680*
%FSLAX25Y25*%
%MOIN*%
G70*
G04*
G04 #@! TF.SameCoordinates,DF6BEBB8-A918-4F7C-B8FD-E409C10D3AD1*
G04*
G04*
G04 #@! TF.FilePolarity,Positive*
G04*
G01*
G75*
%ADD10C,0.01000*%
%ADD18R,0.03937X0.04331*%
%ADD25R,0.04331X0.03937*%
%ADD26R,0.03543X0.02756*%
%ADD27R,0.04331X0.02559*%
%ADD28R,0.02756X0.03543*%
%ADD32R,0.02559X0.04331*%
%ADD37C,0.05000*%
%ADD58C,0.03000*%
%ADD62C,0.04000*%
%ADD64C,0.00600*%
%ADD65C,0.00800*%
%ADD66C,0.01500*%
%ADD67C,0.01200*%
%ADD68C,0.05906*%
%ADD69R,0.05906X0.05906*%
%ADD70R,0.05906X0.05906*%
%ADD71C,0.03937*%
%ADD72O,0.06693X0.07087*%
%ADD73C,0.06102*%
%ADD74C,0.02200*%
%ADD75C,0.01968*%
%ADD91R,0.01575X0.02008*%
%ADD92R,0.07795X0.02087*%
%ADD93R,0.07480X0.09449*%
%ADD94O,0.00984X0.03543*%
%ADD95O,0.03543X0.00984*%
%ADD96R,0.12992X0.12992*%
%ADD97R,0.13386X0.13386*%
%ADD98O,0.00787X0.02756*%
%ADD99O,0.02756X0.00787*%
%ADD100R,0.01575X0.03543*%
%ADD101R,0.05000X0.04000*%
%ADD102R,0.04000X0.05000*%
%ADD103O,0.18000X0.06000*%
%ADD104O,0.06000X0.18000*%
%ADD105R,0.18000X0.06000*%
%ADD106C,0.01400*%
D10*
X98263Y76700D02*
Y126000D01*
X91263Y126500D02*
Y130000D01*
X331700Y156000D02*
X341263D01*
X229363Y56300D02*
Y118200D01*
X213063Y40000D02*
X229363Y56300D01*
X188700Y40000D02*
X213063D01*
X188700Y140000D02*
Y144963D01*
X131063Y117300D02*
Y123800D01*
X123763Y110000D02*
X131063Y117300D01*
X111700Y110000D02*
X123763D01*
X111700Y130000D02*
X150163D01*
X120763Y140000D02*
X124063Y136700D01*
X111700Y140000D02*
X120763D01*
X111700Y90000D02*
X121563D01*
X111700Y120000D02*
X121663D01*
X69263Y104500D02*
X91263Y126500D01*
X65109Y104500D02*
X69263D01*
X19263Y127000D02*
Y128000D01*
X11763Y135500D02*
X19263Y128000D01*
X11763Y135500D02*
Y144547D01*
X98763Y157606D02*
Y159500D01*
X92263Y65000D02*
Y66500D01*
X92963Y71400D02*
X98263Y76700D01*
X93363Y86400D02*
Y108600D01*
X95763Y111000D01*
D18*
X81600Y30854D02*
D03*
Y37546D02*
D03*
X-3237Y107653D02*
D03*
Y114347D02*
D03*
X-70200Y68554D02*
D03*
Y75247D02*
D03*
X216700Y106846D02*
D03*
Y100154D02*
D03*
X207200Y106846D02*
D03*
Y100154D02*
D03*
D25*
X-63247Y155700D02*
D03*
X-56554D02*
D03*
X2547Y160300D02*
D03*
X-4146D02*
D03*
X65109Y104500D02*
D03*
X58416D02*
D03*
X58046Y98500D02*
D03*
X51354D02*
D03*
X26616Y79200D02*
D03*
X33309D02*
D03*
X33310Y73700D02*
D03*
X26617D02*
D03*
X-32583Y103500D02*
D03*
X-25891D02*
D03*
X397547Y86500D02*
D03*
X390854D02*
D03*
D26*
X68759Y50900D02*
D03*
X63641D02*
D03*
X-63759Y160700D02*
D03*
X-58641D02*
D03*
X6259Y147500D02*
D03*
X1141D02*
D03*
X386259Y102500D02*
D03*
X381141D02*
D03*
X344504Y110200D02*
D03*
X349622D02*
D03*
X353759Y128500D02*
D03*
X348641D02*
D03*
X396259Y95000D02*
D03*
X391141D02*
D03*
X362141D02*
D03*
X367259D02*
D03*
X362641Y87000D02*
D03*
X367759D02*
D03*
X341641Y146500D02*
D03*
X346759D02*
D03*
X341641Y138500D02*
D03*
X346759D02*
D03*
X353204Y18000D02*
D03*
X358322D02*
D03*
X372141Y52000D02*
D03*
X377259D02*
D03*
X397904Y21600D02*
D03*
X403022D02*
D03*
X376141Y134500D02*
D03*
X381259D02*
D03*
D27*
X-39076Y103760D02*
D03*
Y111240D02*
D03*
X-48524D02*
D03*
Y107500D02*
D03*
Y103760D02*
D03*
X374476Y94740D02*
D03*
Y87260D02*
D03*
X383924D02*
D03*
Y91000D02*
D03*
Y94740D02*
D03*
X353476Y146240D02*
D03*
Y138760D02*
D03*
X362924D02*
D03*
Y142500D02*
D03*
Y146240D02*
D03*
D28*
X80763Y153941D02*
D03*
Y159059D02*
D03*
X44759Y153941D02*
D03*
Y159059D02*
D03*
X61200Y110441D02*
D03*
Y115559D02*
D03*
X763Y120441D02*
D03*
Y125559D02*
D03*
X8700Y125059D02*
D03*
Y119941D02*
D03*
X395200Y128059D02*
D03*
Y122941D02*
D03*
X365063Y126459D02*
D03*
Y121341D02*
D03*
X403200Y97559D02*
D03*
Y92441D02*
D03*
X391200Y80559D02*
D03*
Y75441D02*
D03*
X398700Y80559D02*
D03*
Y75441D02*
D03*
X399200Y49500D02*
D03*
Y54618D02*
D03*
X368700Y142441D02*
D03*
Y147559D02*
D03*
X393163Y47059D02*
D03*
Y41941D02*
D03*
X359363Y43959D02*
D03*
Y38841D02*
D03*
X404463Y33441D02*
D03*
Y38559D02*
D03*
X401963Y117941D02*
D03*
Y123059D02*
D03*
D32*
X960Y131776D02*
D03*
X8440D02*
D03*
Y141224D02*
D03*
X4700D02*
D03*
X960D02*
D03*
X398940Y68724D02*
D03*
X391460D02*
D03*
Y59276D02*
D03*
X395200D02*
D03*
X398940D02*
D03*
D37*
X7100Y16400D02*
D03*
D58*
X98263Y126000D02*
D03*
X88763Y136500D02*
D03*
X-4400Y97900D02*
D03*
X-3737Y105750D02*
D03*
X19263Y127000D02*
D03*
X4763Y120000D02*
D03*
D62*
X-56734Y139637D02*
D03*
X412100Y160000D02*
D03*
Y-2562D02*
D03*
D64*
X388584Y31079D02*
X389500Y30163D01*
Y26100D02*
Y30163D01*
X-71000Y35900D02*
X-65900D01*
X-59564Y29564D01*
X-40564D01*
X-40500Y29500D01*
X-70800Y24559D02*
Y35700D01*
X-71000Y35900D02*
X-70800Y35700D01*
X-72588Y17888D02*
X-69100Y14400D01*
X-63300D01*
X-72588Y17888D02*
Y19261D01*
X-72768Y19441D02*
X-72588Y19261D01*
X-20000Y100D02*
X-14142Y5958D01*
X1466D02*
X17000Y21492D01*
X-14142Y5958D02*
X1466D01*
X-20000Y0D02*
Y100D01*
X-68831Y19441D02*
X-20841D01*
X-18400Y17000D01*
X-5337D02*
X8963Y31300D01*
X-18400Y17000D02*
X-5337D01*
X-71000Y45900D02*
X-26349Y90551D01*
X-19007D01*
X63641Y21851D02*
X63992Y21500D01*
X72500D01*
X63641Y21851D02*
Y50900D01*
X68759D02*
X73900D01*
X35610Y31400D02*
X44049D01*
X19206Y17950D02*
X32756Y31500D01*
X35610D01*
X19206Y16906D02*
Y17950D01*
X18900Y16600D02*
X19206Y16906D01*
X123600Y55700D02*
X123906Y56006D01*
X123200Y55300D02*
X123600Y55700D01*
X102100Y64600D02*
X123649D01*
X123906Y56758D02*
X124000Y56852D01*
X123649Y64600D02*
X124000Y64249D01*
X123906Y56006D02*
Y56758D01*
X124000Y56852D02*
Y64249D01*
X127700Y35800D02*
X149300Y14200D01*
X99303Y35800D02*
X127700D01*
X149300Y14200D02*
X165091D01*
X99900Y66800D02*
X102100Y64600D01*
X99900Y66800D02*
Y72700D01*
X102226Y75026D01*
X126974D01*
X129200Y77251D02*
Y104700D01*
X126974Y75026D02*
X129200Y77251D01*
X111700Y70000D02*
X133963D01*
X129200Y104700D02*
X154500Y130000D01*
Y132100D01*
X150900Y135700D02*
X154500Y132100D01*
X132900Y135700D02*
X150900D01*
X130700Y137900D02*
X132900Y135700D01*
X130700Y137900D02*
Y149000D01*
X134600Y158900D02*
X152315D01*
X153115Y158100D01*
X130700Y149000D02*
Y155000D01*
X153115Y158100D02*
X158285D01*
X130700Y155000D02*
X134600Y158900D01*
X158285Y158100D02*
X159085Y158900D01*
X207962D01*
X210862Y156000D01*
X259705D01*
X261400Y154306D01*
Y149800D02*
Y154306D01*
Y149800D02*
X262200Y149000D01*
X33310Y73700D02*
X39400D01*
X44400Y68700D01*
X-7400Y69900D02*
X-3600Y73700D01*
X-7400Y60300D02*
Y69900D01*
X-15900Y69498D02*
X-13000Y66598D01*
Y52797D02*
X3397Y36400D01*
X-13000Y52797D02*
Y66598D01*
X-3600Y73700D02*
X26617D01*
X-6900Y79200D02*
X26616D01*
X-8400Y77700D02*
X-6900Y79200D01*
X-17571Y86632D02*
X-16406Y85466D01*
X-17571Y87129D02*
X-16144Y88556D01*
X-17571Y86632D02*
Y87129D01*
X-16406Y83806D02*
Y85466D01*
X-15900Y69498D02*
Y83300D01*
X-16406Y83806D02*
X-15900Y83300D01*
X-11100Y100058D02*
X-10548Y99507D01*
Y99010D02*
Y99507D01*
X-19007Y90551D02*
X-10548Y99010D01*
X-11100Y100058D02*
Y105350D01*
X-10500Y19700D02*
X-1900Y28300D01*
Y36700D01*
X3397Y36400D02*
X16487D01*
X32773D01*
X17000Y21492D02*
Y35887D01*
X16487Y36400D02*
X17000Y35887D01*
X3000Y41600D02*
X32573D01*
X86063Y130800D02*
X89363Y134100D01*
X89757D01*
X104863Y144820D02*
Y151505D01*
X98763Y143106D02*
Y149500D01*
X94463Y136700D02*
X102263Y144500D01*
X89757Y134100D02*
X98763Y143106D01*
X95763Y135720D02*
X104863Y144820D01*
X86063Y129512D02*
Y130800D01*
X102263Y144500D02*
Y145600D01*
X81051Y124500D02*
X86063Y129512D01*
X71490Y140390D02*
X72700Y141600D01*
Y146300D02*
X76000Y149600D01*
X72700Y141600D02*
Y146300D01*
X69239Y140390D02*
X71490D01*
X47263Y163000D02*
X79263D01*
X32573Y41600D02*
X32673Y41500D01*
X45100Y91700D02*
Y110200D01*
X52763Y88337D02*
X95500Y45600D01*
X43600Y91503D02*
X99303Y35800D01*
X96800Y40000D02*
X111700D01*
X45100Y91700D02*
X96800Y40000D01*
X43600Y91503D02*
Y110690D01*
X52763Y88337D02*
Y93000D01*
X95500Y45600D02*
X95900D01*
X44049Y31400D02*
X44400Y31751D01*
Y68700D01*
X63304Y50563D02*
X63641Y50900D01*
X368700Y151563D02*
X379263Y141000D01*
X363700Y156563D02*
X368700Y151563D01*
X335800Y161500D02*
X381200D01*
X331700Y157400D02*
X335800Y161500D01*
X331700Y156000D02*
Y157400D01*
X389263Y3563D02*
X390500Y4800D01*
X389263Y-1600D02*
Y3563D01*
X330400Y16200D02*
X331300Y17100D01*
X342800Y23400D02*
X345400Y20800D01*
X353063Y40350D02*
X358013Y35400D01*
X330100Y59500D02*
X356553Y33047D01*
X330100Y59500D02*
Y61615D01*
X327815Y63900D02*
X330100Y61615D01*
X325700Y63900D02*
X327815D01*
X324900Y64700D02*
X325700Y63900D01*
X356553Y33047D02*
X365357D01*
X312763Y64700D02*
X324900D01*
X370063Y50100D02*
X372247D01*
X367563D02*
X370063D01*
X362063D02*
X367563D01*
X331300Y30000D02*
X335513D01*
X331300Y17100D02*
Y30000D01*
X320200D02*
X331300D01*
X98300Y42800D02*
Y48700D01*
X62500Y84500D02*
X98300Y48700D01*
X62500Y84500D02*
Y101176D01*
X101100Y32800D02*
X102800Y34500D01*
X122900D01*
X124900Y32500D01*
Y8600D02*
Y32500D01*
Y8600D02*
X165000D01*
X62044Y101631D02*
X62500Y101176D01*
X62044Y101631D02*
Y106841D01*
X62869Y107667D01*
Y107769D01*
X62951D01*
X65500Y110319D01*
Y116200D01*
X62153Y119547D02*
X65500Y116200D01*
X62153Y119547D02*
Y123461D01*
X43600Y110690D02*
X52310Y119400D01*
Y123461D01*
X53150Y118250D02*
X54279Y119379D01*
X45100Y110200D02*
X53150Y118250D01*
X54279Y119379D02*
Y123461D01*
X243200Y100000D02*
X253100D01*
X256563Y96537D01*
Y48763D02*
Y96537D01*
X252900Y45100D02*
X256563Y48763D01*
X232300Y45100D02*
X252900D01*
X229063Y41863D02*
X232300Y45100D01*
X229063Y18662D02*
Y41863D01*
X224501Y14100D02*
X229063Y18662D01*
X165191Y14100D02*
X224501D01*
X165091Y14200D02*
X165191Y14100D01*
X165000Y8600D02*
X172600Y1000D01*
X225000D01*
X232200Y8200D01*
Y37900D01*
X234300Y40000D01*
X243200D01*
X33310Y73700D02*
Y79200D01*
X345400Y20800D02*
X372963D01*
X358322Y18000D02*
Y20359D01*
X354963Y110200D02*
X356963Y108200D01*
Y39500D02*
Y108200D01*
X349863Y23800D02*
X369563D01*
X333663Y40000D02*
X349863Y23800D01*
X349766Y22200D02*
X371363D01*
X416663Y78500D02*
Y141000D01*
X379263D02*
X416663D01*
X363237Y114874D02*
X369858D01*
X391322Y48900D02*
X393163Y47059D01*
X380121Y48900D02*
X391322D01*
X380121Y45842D02*
Y48900D01*
X403891Y86800D02*
X416563D01*
X398931Y91761D02*
X403891Y86800D01*
X397781Y97900D02*
X398931Y96751D01*
X392563Y97900D02*
X397781D01*
X398931Y91761D02*
Y96751D01*
X391141Y96478D02*
X392563Y97900D01*
X391141Y95000D02*
Y96478D01*
X297395Y132100D02*
X303663D01*
X296095Y130800D02*
X297395Y132100D01*
X278591D02*
X284859D01*
X286159Y130800D01*
X272963Y128800D02*
X276563Y132400D01*
X278291D01*
X286159Y130800D02*
X296095D01*
X278291Y132400D02*
X278591Y132100D01*
X303663D02*
X311563Y140000D01*
X272963Y128800D02*
X289263Y112500D01*
X176163Y137400D02*
Y148300D01*
X170163Y131400D02*
X176163Y137400D01*
X159263Y131400D02*
X170163D01*
X176163Y148300D02*
X177363Y149500D01*
X142163Y114300D02*
X159263Y131400D01*
X199663Y137072D02*
Y138828D01*
X198600Y139891D02*
X199663Y138828D01*
X201594Y135141D02*
X203350D01*
X199663Y137072D02*
X201594Y135141D01*
X203350D02*
X205691Y132800D01*
X198600Y139891D02*
Y141615D01*
X196315Y143900D02*
X198600Y141615D01*
X194591Y143900D02*
X196315D01*
X188991Y149500D02*
X194591Y143900D01*
X177363Y149500D02*
X188991D01*
X221963Y132800D02*
X223232Y134069D01*
X205691Y132800D02*
X221963D01*
X142163Y78200D02*
Y114300D01*
X133963Y70000D02*
X142163Y78200D01*
X216191Y131100D02*
X219663D01*
X215691Y131600D02*
X216191Y131100D01*
X214035Y131600D02*
X215691D01*
X213535Y131100D02*
X214035Y131600D01*
X208563Y131100D02*
X213535D01*
X208163Y130700D02*
X208563Y131100D01*
X223232Y134069D02*
Y136941D01*
X219663Y103117D02*
Y131100D01*
X216700Y100154D02*
X219663Y103117D01*
X214863Y110943D02*
Y129600D01*
X213831Y109912D02*
X214863Y110943D01*
X213831Y106785D02*
Y109912D01*
X207200Y100154D02*
X213831Y106785D01*
X216700Y99537D02*
Y100154D01*
X202763Y85600D02*
X216700Y99537D01*
X202763Y82500D02*
Y85600D01*
X200263Y80000D02*
X202763Y82500D01*
X188700Y80000D02*
X200263D01*
X207200Y93537D02*
Y100154D01*
X203663Y90000D02*
X207200Y93537D01*
X188700Y90000D02*
X203663D01*
X222063Y89929D02*
Y125200D01*
Y89929D02*
X222135Y89857D01*
Y62222D02*
Y89857D01*
X219563Y59649D02*
X222135Y62222D01*
X219563Y50000D02*
Y59649D01*
X188700Y50000D02*
X219563D01*
X243200Y140000D02*
X254463D01*
X268463Y126000D01*
Y122500D02*
Y126000D01*
X365263Y111600D02*
X366568Y112906D01*
X243400Y109800D02*
X253563D01*
X262363Y117700D02*
X268163Y111900D01*
X257263Y130000D02*
X257963Y129300D01*
Y46900D02*
Y129300D01*
Y46900D02*
X270063Y34800D01*
X268163Y77600D02*
Y111900D01*
Y77600D02*
X283300Y62463D01*
X285585Y56100D02*
X298615D01*
X303100Y51615D01*
X283300Y58385D02*
Y62463D01*
Y58385D02*
X285585Y56100D01*
X303100Y50466D02*
Y51615D01*
Y50466D02*
X309666Y43900D01*
X332460D01*
X350203Y26158D01*
X311563Y140000D02*
X320200D01*
X289263Y89800D02*
Y112500D01*
Y89800D02*
X305363Y73700D01*
Y49900D02*
Y73700D01*
Y49900D02*
X309963Y45300D01*
X337784D01*
X353973Y29110D01*
X320200Y50000D02*
X335463D01*
X337166Y34800D02*
X349766Y22200D01*
X270063Y34800D02*
X337166D01*
X320200Y40000D02*
X333663D01*
X407663Y54000D02*
X411700D01*
X404463Y50800D02*
X407663Y54000D01*
X404463Y38559D02*
Y50800D01*
X381141Y102500D02*
X381363Y102278D01*
Y99800D02*
Y102278D01*
X381263Y99700D02*
X381363Y99800D01*
X377463Y99700D02*
X381263D01*
X374476Y96713D02*
X377463Y99700D01*
X374476Y94740D02*
Y96713D01*
X396259Y91000D02*
Y95000D01*
Y87787D02*
Y91000D01*
X383924Y94740D02*
X390881D01*
X367519D02*
X374476D01*
X368019Y87260D02*
X374476D01*
X343663Y125500D02*
X344504Y124659D01*
Y110200D02*
Y124659D01*
X352563Y150000D02*
X353476Y149087D01*
Y146240D02*
Y149087D01*
X353926Y156563D02*
X363700D01*
X346141Y148778D02*
X353926Y156563D01*
X339496Y148778D02*
X346141D01*
X345676Y128500D02*
X348641D01*
X338969Y135206D02*
X345676Y128500D01*
X338969Y135206D02*
Y148251D01*
X353759Y128500D02*
Y131396D01*
X358863Y119700D02*
X359943Y120780D01*
X358863Y114100D02*
Y119700D01*
X354963Y110200D02*
X358863Y114100D01*
X349622Y110200D02*
X354963D01*
X364663Y107200D02*
X368400Y110937D01*
X338969Y148251D02*
X339496Y148778D01*
X368700Y147559D02*
Y151563D01*
X364763Y125959D02*
Y129500D01*
X381259Y137796D02*
X382163Y138700D01*
X381259Y134500D02*
Y137796D01*
X395200Y128059D02*
X398122D01*
X390463Y102500D02*
X391563Y103600D01*
X386259Y102500D02*
X390463D01*
X367463Y123200D02*
Y124800D01*
X367547Y124716D02*
X369858D01*
X364763Y125959D02*
X366304D01*
X367463Y124800D01*
Y123200D02*
X367915Y122748D01*
X369858D01*
X367200Y118000D02*
X367263D01*
X368074Y118811D01*
X369858D01*
X366568Y112906D02*
X369858D01*
X368400Y110937D02*
X369858D01*
X369663Y104447D02*
X372810D01*
Y107984D01*
X367463Y101500D02*
X373163D01*
X374779Y103116D01*
Y107984D01*
X373163Y99700D02*
X378716Y105253D01*
Y107984D01*
X380684Y102957D02*
Y107984D01*
X392858Y112906D02*
X395463Y110300D01*
X389543Y112906D02*
X392858D01*
X403200Y92441D02*
X411641D01*
X403200Y97559D02*
Y108463D01*
X396789Y114874D02*
X403200Y108463D01*
X389543Y114874D02*
X396789D01*
X401963Y123059D02*
X410259D01*
X389543Y116842D02*
X400865D01*
X389543Y122748D02*
X395007D01*
X384621Y130958D02*
X386963Y133300D01*
X384621Y127669D02*
Y130958D01*
X380684Y127669D02*
Y133925D01*
X374363Y134500D02*
X376141D01*
X372810Y132947D02*
X374363Y134500D01*
X372810Y127669D02*
Y132947D01*
X376747Y127669D02*
Y133894D01*
Y120780D02*
Y127669D01*
X359943Y120780D02*
X369858D01*
X349641Y111000D02*
Y114669D01*
X352200Y123331D02*
Y126941D01*
X349641Y123331D02*
Y127500D01*
X362924Y142500D02*
X368641D01*
X362924Y146240D02*
X367381D01*
X347019D02*
X353476D01*
X347019Y138760D02*
X353476D01*
X341641Y142500D02*
X362924D01*
X341563D02*
X341641D01*
Y146500D01*
Y138500D02*
Y142500D01*
X341463Y146322D02*
X341641Y146500D01*
X341463Y142600D02*
Y146322D01*
Y142600D02*
X341563Y142500D01*
X310300Y67163D02*
X312763Y64700D01*
X310300Y67163D02*
Y90737D01*
X243500Y119700D02*
X253863D01*
X277463Y130400D02*
X278463Y129400D01*
X319600D01*
X243500Y89700D02*
X254563D01*
X243200Y140000D02*
X246000Y137200D01*
X243200Y130000D02*
X257263D01*
X389822Y33441D02*
X404463D01*
X388247Y35016D02*
X389822Y33441D01*
X385043Y35016D02*
X388247D01*
X392363Y24100D02*
Y29100D01*
X388416Y33047D02*
X392363Y29100D01*
X385043Y33047D02*
X388416D01*
X385043Y31079D02*
X388584D01*
X393510Y38953D02*
X394763Y37700D01*
X373063Y1400D02*
Y6100D01*
X404641Y75441D02*
X411700Y82500D01*
X398700Y75441D02*
X404641D01*
X405363Y67200D02*
X416663Y78500D01*
X405363Y62700D02*
Y67200D01*
X401939Y59276D02*
X405363Y62700D01*
X398940Y59276D02*
X401939D01*
X368310Y48347D02*
X370063Y50100D01*
X359363Y47400D02*
X362063Y50100D01*
X377259Y52000D02*
X381963D01*
X356963Y39500D02*
X357622Y38841D01*
X359363D01*
X310300Y90737D02*
X319463D01*
X358013Y35400D02*
X361563D01*
X353063Y40350D02*
Y42800D01*
X331563Y64300D02*
X353063Y42800D01*
X359363Y43959D02*
Y47400D01*
X331563Y64300D02*
Y77400D01*
X328963Y80000D02*
X331563Y77400D01*
X320200Y80000D02*
X328963D01*
X319463Y90737D02*
X320200Y90000D01*
X354384Y31079D02*
X365357D01*
X335463Y50000D02*
X354384Y31079D01*
X392363Y24100D02*
X394863Y21600D01*
X353973Y29110D02*
X365357D01*
X365347Y29100D02*
X365357Y29110D01*
X361563Y35400D02*
X363147Y36984D01*
X365357D01*
X363084Y40921D02*
Y43179D01*
X363373Y42890D02*
X365357D01*
X359363Y43959D02*
X362304D01*
X363084Y43179D01*
Y40921D02*
X365357D01*
X372247Y45842D02*
Y51894D01*
X368310Y45842D02*
Y48347D01*
X372247Y38953D02*
Y45842D01*
X359475Y38953D02*
X365357D01*
X377259Y50096D02*
Y52000D01*
X376184Y49021D02*
X377259Y50096D01*
X376184Y45842D02*
Y49021D01*
X391200Y80559D02*
X398700D01*
X391200Y68984D02*
Y75441D01*
X398940Y68724D02*
Y75201D01*
X399200Y54618D02*
Y59016D01*
X385043Y40921D02*
X392143D01*
X385043Y38953D02*
X393510D01*
X385043Y36984D02*
X389547D01*
X394863Y21600D02*
X397904D01*
X403022D02*
X411600D01*
X372963Y20800D02*
X376184Y24021D01*
X371363Y22200D02*
X374216Y25053D01*
X369563Y23800D02*
X370279Y24516D01*
X376184Y24021D02*
Y26158D01*
X374216Y25053D02*
Y26158D01*
X370279Y24516D02*
Y26158D01*
X350203D02*
X368310D01*
X98763Y157606D02*
X104863Y151505D01*
X94463Y125003D02*
Y136700D01*
X91363Y135100D02*
X93263Y133200D01*
X79763Y124500D02*
X81051D01*
X93263Y123803D02*
X94463Y125003D01*
X93263Y121500D02*
Y123803D01*
X26763Y132500D02*
Y141500D01*
X81763Y110000D02*
X93263Y121500D01*
X81763Y80000D02*
Y110000D01*
X95763Y111000D02*
Y134879D01*
X93263Y125500D02*
Y133200D01*
X79763Y112000D02*
X93263Y125500D01*
X51354Y94410D02*
X52763Y93000D01*
X51354Y94410D02*
Y98500D01*
X26763Y132500D02*
X29763Y129500D01*
X21763Y132500D02*
X25263Y129000D01*
X21763Y132500D02*
Y141000D01*
X80763Y159059D02*
Y161500D01*
X79263Y163000D02*
X80763Y161500D01*
X44759Y160496D02*
X47263Y163000D01*
X44759Y159059D02*
Y160496D01*
X56247Y136453D02*
Y143539D01*
X60184Y134484D02*
Y143539D01*
D65*
X25513Y146250D02*
X41216Y130547D01*
X-5783Y159300D02*
X-4083Y161000D01*
X-22725Y101825D02*
X-17500Y96600D01*
X-14390Y115347D02*
X-3237D01*
X69663Y6063D02*
Y21400D01*
X73900Y50900D02*
X78290Y46510D01*
X32300Y92500D02*
X73900Y50900D01*
X64068Y1368D02*
X64513D01*
X69209Y6063D02*
X69663D01*
X64513Y1368D02*
X69209Y6063D01*
X63800Y1100D02*
X64068Y1368D01*
X146073Y1100D02*
X149126Y-1953D01*
X120563Y1100D02*
X146073D01*
X124963Y50000D02*
X127763Y47200D01*
X111700Y50000D02*
X124963D01*
X127763Y39555D02*
Y47200D01*
X126363Y38976D02*
Y41100D01*
X148338Y17000D02*
X174063D01*
X122663Y44800D02*
X126363Y41100D01*
X103263Y44800D02*
X122663D01*
X142618Y24700D02*
X197863D01*
X127763Y39555D02*
X142618Y24700D01*
X126363Y38976D02*
X148338Y17000D01*
X-14044Y72294D02*
X-11700Y69950D01*
Y56300D02*
X3000Y41600D01*
X-11700Y56300D02*
Y69950D01*
X-14044Y72294D02*
Y89506D01*
X-9000Y94550D01*
Y108200D01*
X19263Y149374D02*
X19637Y149000D01*
X17057Y151580D02*
X19263Y149374D01*
X-9850Y109050D02*
X-9000Y108200D01*
X-12041Y109050D02*
X-9850D01*
X-59100Y79000D02*
Y101400D01*
X-56740Y103760D01*
X-48524D01*
X-57746Y68554D02*
X-52600Y73700D01*
X-70200Y68554D02*
X-57746D01*
X-14390Y111400D02*
Y115347D01*
Y111400D02*
X-12041Y109050D01*
X-75737Y163500D02*
X-64900D01*
X-77737Y121937D02*
Y161500D01*
X-75737Y163500D01*
X-77737Y121937D02*
X-71800Y116000D01*
X-63759Y160700D02*
Y162359D01*
X-64900Y163500D02*
X-63759Y162359D01*
X-57300Y163500D02*
X-54737D01*
X-58641Y162159D02*
X-57300Y163500D01*
X-55100Y162137D02*
X-54237Y163000D01*
X-55100Y155353D02*
Y162137D01*
X-58641Y160700D02*
Y162159D01*
X78793Y138000D02*
X81200D01*
X69239Y134484D02*
X75277D01*
X78793Y138000D01*
X100263Y57400D02*
X102863Y60000D01*
X100263Y47800D02*
X103263Y44800D01*
X100263Y47800D02*
Y57400D01*
X102863Y60000D02*
X111700D01*
X44216Y165453D02*
X387247D01*
X391200Y161500D01*
X40763Y162000D02*
X44216Y165453D01*
X72724Y138421D02*
X75763Y141460D01*
X69239Y138421D02*
X72724D01*
X75763Y141460D02*
Y145000D01*
X201000Y138100D02*
X202300D01*
X4700Y119941D02*
X8700D01*
X700D02*
X4700D01*
X32773Y6400D02*
Y26400D01*
X27600Y6400D02*
X32773D01*
X27500Y6300D02*
X27600Y6400D01*
X-3737Y105750D02*
X-3237Y106250D01*
Y107653D01*
X-2420Y102683D02*
Y103838D01*
Y102683D02*
X7763Y92500D01*
X-3737Y105155D02*
X-2420Y103838D01*
X-3737Y105155D02*
Y105750D01*
X7763Y92500D02*
X32300D01*
X78500Y36400D02*
X80453D01*
X69663D02*
X78500D01*
X78290Y36610D02*
X78500Y36400D01*
X78290Y36610D02*
Y46510D01*
X31263Y102002D02*
X90769Y42496D01*
X33500Y94100D02*
X85700Y41900D01*
X29863Y101237D02*
Y119400D01*
X13800Y94100D02*
X33500D01*
X31263Y102002D02*
Y123000D01*
X29863Y101237D02*
X89369Y41731D01*
Y32331D02*
Y41731D01*
X90769Y39761D02*
Y42496D01*
X85700Y32600D02*
Y41900D01*
X3200Y104700D02*
X13800Y94100D01*
X85231Y32131D02*
X85700Y32600D01*
X81600Y30854D02*
X82878Y32131D01*
X85231D01*
X3200Y104700D02*
Y112563D01*
X90769Y39761D02*
X100530Y30000D01*
X101700Y20000D02*
X111700D01*
X89369Y32331D02*
X101700Y20000D01*
X100530Y30000D02*
X111700D01*
X80453Y36400D02*
X81600Y37546D01*
X69663Y31400D02*
X81054D01*
X81600Y30854D01*
X59263Y147500D02*
X61263D01*
X-63083Y154717D02*
Y155700D01*
X960Y125319D02*
Y131776D01*
X416263Y7663D02*
Y56300D01*
X404400Y-4200D02*
X416263Y7663D01*
X282873Y-4200D02*
X404400D01*
X280273Y-1600D02*
X282873Y-4200D01*
X20943Y160800D02*
X43322Y138421D01*
X18303Y160800D02*
X20943D01*
X14703Y157200D02*
X18303Y160800D01*
X85839Y63000D02*
X90263D01*
X79763Y69076D02*
X85839Y63000D01*
X79763Y69076D02*
Y112000D01*
X66407Y121173D02*
X68436D01*
X66090Y121490D02*
X66407Y121173D01*
X66090Y121490D02*
Y123461D01*
X67100Y118500D02*
X78263D01*
X64121Y121479D02*
X67100Y118500D01*
X64121Y121479D02*
Y123461D01*
X151700Y47500D02*
Y64000D01*
X137750Y33550D02*
X151700Y47500D01*
X26263Y123000D02*
X29863Y119400D01*
X31343Y126610D02*
X49161D01*
X31133Y126400D02*
X31343Y126610D01*
X29393Y126400D02*
X31133D01*
X29183Y126610D02*
X29393Y126400D01*
X22409Y126610D02*
X29183D01*
X14830Y119032D02*
X22409Y126610D01*
X-26150Y131587D02*
X-23087D01*
X-14390Y122891D01*
Y115347D02*
Y122891D01*
X-43623Y131587D02*
X-40387D01*
X-24490Y115691D01*
Y107648D02*
Y115691D01*
Y107648D02*
X-22725Y105883D01*
Y101825D02*
Y105883D01*
X15963Y154500D02*
X23263D01*
X15863Y154400D02*
X15963Y154500D01*
X-7837Y154400D02*
X15863D01*
X-15237Y147000D02*
X-7837Y154400D01*
X15983Y156500D02*
X19763D01*
X15283Y155800D02*
X15983Y156500D01*
X-8437Y155800D02*
X15283D01*
X-13737Y150500D02*
X-8437Y155800D01*
X-9017Y157200D02*
X14703D01*
X-14317Y151900D02*
X-9017Y157200D01*
X243200Y9363D02*
X249163Y3400D01*
X243200Y9363D02*
Y10000D01*
X160564Y-1600D02*
X280273D01*
X111700Y3037D02*
Y10000D01*
X197263Y134800D02*
X199763Y132300D01*
X180563Y134800D02*
X197263D01*
X178700Y136663D02*
X180563Y134800D01*
X178700Y136663D02*
Y146163D01*
X207913Y23450D02*
Y30200D01*
Y23450D02*
X211563Y19800D01*
X212963D01*
X216263Y17300D02*
X225163Y26200D01*
X205263Y17300D02*
X216263D01*
X197863Y24700D02*
X205263Y17300D01*
X227763Y19200D02*
Y44900D01*
X223963Y15400D02*
X227763Y19200D01*
X175663Y15400D02*
X223963D01*
X350463Y14100D02*
X353204Y16841D01*
X391460Y55103D02*
X395763Y50800D01*
Y48373D02*
Y50800D01*
Y48373D02*
X397408Y46728D01*
X395263Y53700D02*
X399200Y49763D01*
X381200Y161500D02*
X381700Y161000D01*
X385239Y59276D02*
Y85946D01*
X358963Y132400D02*
X362924Y136361D01*
X357663Y131100D02*
X358963Y132400D01*
X402563Y54400D02*
X406163Y58000D01*
X402563Y47100D02*
Y54400D01*
X402191Y46728D02*
X402563Y47100D01*
X397408Y46728D02*
X402191D01*
X391460Y55103D02*
Y59276D01*
X406163Y58000D02*
X414563D01*
X416263Y56300D01*
X160211Y-1953D02*
X160564Y-1600D01*
X149126Y-1953D02*
X160211D01*
X227763Y44900D02*
X232863Y50000D01*
X243200D01*
X174063Y17000D02*
X175663Y15400D01*
X225163Y26200D02*
Y48900D01*
X236263Y60000D01*
X243200D01*
X216063Y30200D02*
X219463Y26800D01*
X213213Y30200D02*
X216063D01*
X188700Y30000D02*
X207350D01*
X292200Y138037D02*
Y149000D01*
X288563Y134400D02*
X292200Y138037D01*
X288563Y133100D02*
Y134400D01*
X313063Y152700D02*
X321763D01*
X333963Y140500D01*
Y107000D02*
Y140500D01*
X326963Y100000D02*
X333963Y107000D01*
X320200Y100000D02*
X326963D01*
X160663Y136400D02*
X160700Y136437D01*
Y149000D01*
X178563Y146300D02*
X178700Y146163D01*
X199763Y102400D02*
Y132300D01*
X197363Y100000D02*
X199763Y102400D01*
X188700Y100000D02*
X197363D01*
X203263Y131900D02*
X207200Y127963D01*
X173763Y130000D02*
X188700D01*
X166663Y122900D02*
X173763Y130000D01*
X166663Y78963D02*
Y122900D01*
X151700Y64000D02*
X166663Y78963D01*
X202300Y138100D02*
X206300Y134100D01*
X217563D01*
X219295Y135831D01*
Y136941D01*
X216700Y106846D02*
Y125237D01*
X207200Y106846D02*
Y127963D01*
X362141Y87500D02*
Y95000D01*
X384684Y86500D02*
X390854D01*
X385239Y59276D02*
X391460D01*
X354919Y125096D02*
X357663Y127840D01*
X354759Y125096D02*
X354919D01*
X362924Y136361D02*
Y138760D01*
X357663Y127840D02*
Y131100D01*
X354759Y123331D02*
Y125096D01*
X329563Y3100D02*
X335563Y9100D01*
Y24750D01*
X395200Y54863D02*
Y59276D01*
X81312Y128579D02*
X83363Y130630D01*
X69239Y128579D02*
X81312D01*
X81323Y126610D02*
X84763Y130050D01*
X69239Y126610D02*
X81323D01*
X84763Y131339D02*
X88763Y135338D01*
X84763Y130050D02*
Y131339D01*
X83363Y131918D02*
X85263Y133818D01*
X83363Y130630D02*
Y131918D01*
X85263Y133818D02*
Y145680D01*
X88763Y135338D02*
Y149500D01*
X71763Y124500D02*
X79763D01*
X95763Y134879D02*
Y135720D01*
X26763Y149000D02*
X43247Y132516D01*
X19637Y149000D02*
X26763D01*
X43247Y132516D02*
X49161D01*
X23263Y154500D02*
X43279Y134484D01*
X49161D01*
X30263Y138000D02*
X39684Y128579D01*
X49161D01*
X41216Y130547D02*
X49161D01*
X81763Y80000D02*
X85363Y76400D01*
X87963D01*
X80310Y130547D02*
X81763Y132000D01*
X69239Y130547D02*
X80310D01*
X59322Y110441D02*
X61200D01*
X19763Y156500D02*
X23263D01*
X13163Y151580D02*
X17057D01*
X14830Y117663D02*
Y119032D01*
X13263Y112000D02*
Y116096D01*
X14830Y117663D01*
X10763Y109500D02*
X13263Y112000D01*
X10763Y104000D02*
Y109500D01*
X19763Y156500D02*
Y157500D01*
X-14697Y153500D02*
X-8897Y159300D01*
X-5783D01*
X23263Y156500D02*
X43310Y136453D01*
X221263Y146000D02*
X226263Y151000D01*
X221263Y142059D02*
Y146000D01*
X85263Y153320D02*
Y154000D01*
X84810Y152867D02*
X85263Y153320D01*
X84810Y146133D02*
Y152867D01*
Y146133D02*
X85263Y145680D01*
X62763Y150500D02*
X64121Y149142D01*
X56554Y150500D02*
X62763D01*
X53554Y153500D02*
X56554Y150500D01*
X-71800Y146000D02*
X-63083Y154717D01*
X58047Y104500D02*
Y106717D01*
X56247Y108516D02*
X58047Y106717D01*
X56247Y108516D02*
Y123461D01*
X44759Y153941D02*
X47318D01*
X47759Y153500D02*
X53554D01*
X47318Y153941D02*
X47759Y153500D01*
X106637Y105063D02*
X111700Y100000D01*
X103200Y105063D02*
X106637D01*
X92200Y140063D02*
X93700Y141563D01*
Y145563D01*
X43322Y138421D02*
X49161D01*
X43310Y136453D02*
X49161D01*
X-59737Y150500D02*
X-13737D01*
X-63247Y146990D02*
X-59737Y150500D01*
X-63247Y128963D02*
Y146990D01*
X-63337Y151900D02*
X-14317D01*
X-65737Y149500D02*
X-63337Y151900D01*
X-65737Y132063D02*
Y149500D01*
X-12077Y145660D02*
Y147200D01*
X-26150Y131587D02*
X-12077Y145660D01*
X-29056Y131587D02*
X-26150D01*
X-59237Y147000D02*
X-15237D01*
X-31300Y153500D02*
X-14697D01*
X78263Y139500D02*
Y144222D01*
X78563Y144523D01*
X-6237Y133500D02*
Y143500D01*
Y133500D02*
X-4513Y131776D01*
X960D01*
X-28237Y107500D02*
X-26044D01*
X-25891Y107346D01*
Y103500D02*
Y107346D01*
X-39076Y103760D02*
X-32843D01*
X-27587Y108150D02*
Y112500D01*
X-28237Y107500D02*
X-27587Y108150D01*
X-39076Y111240D02*
X-34147D01*
X-57150Y107500D02*
X-48524D01*
X-57300Y107350D02*
X-57150Y107500D01*
X109Y163500D02*
X2609Y161000D01*
X-1035Y163500D02*
X109D01*
X-13269Y163969D02*
X-1504D01*
X-17300Y159937D02*
X-13269Y163969D01*
X-1504D02*
X-1035Y163500D01*
X-17300Y159500D02*
Y159937D01*
X-37300Y159500D02*
X-31300Y153500D01*
X-12077Y147200D02*
X-6277Y153000D01*
X11743D01*
X13163Y151580D01*
X8440Y125319D02*
Y131776D01*
X1263Y147622D02*
Y150500D01*
X1763Y151000D01*
X11763D01*
Y144547D02*
Y151000D01*
X8440Y141224D02*
X11763Y144547D01*
X6259Y146496D02*
Y147500D01*
X4700Y144937D02*
X6259Y146496D01*
X4700Y141224D02*
Y144937D01*
X1141Y141405D02*
Y147500D01*
X-75753Y132047D02*
X-71800Y136000D01*
X-75753Y124363D02*
Y132047D01*
Y124363D02*
X-73437Y122047D01*
X-70163D01*
X-63247Y128963D01*
X-71800Y126000D02*
X-65737Y132063D01*
X56263Y147000D02*
Y148000D01*
X78263Y118500D02*
X88263Y128500D01*
X68436Y121173D02*
X71763Y124500D01*
X42763Y142000D02*
X44373Y140390D01*
X58216Y123461D02*
Y132516D01*
Y111547D02*
X59322Y110441D01*
X58216Y111547D02*
Y123461D01*
X58046Y98500D02*
X58047Y98500D01*
Y104500D01*
X61200Y115559D02*
Y117563D01*
X60184Y118579D02*
X61200Y117563D01*
X60184Y118579D02*
Y123461D01*
X44373Y140390D02*
X49161D01*
X40763Y149000D02*
Y162000D01*
Y149000D02*
X46224Y143539D01*
X52310D01*
X49763Y149000D02*
X52263D01*
X54279Y146984D01*
Y143539D02*
Y146984D01*
X56247Y147016D02*
X56263Y147000D01*
X56247Y143539D02*
Y147016D01*
X62153Y143539D02*
Y146610D01*
X61263Y147500D02*
X62153Y146610D01*
X58216Y146453D02*
X59263Y147500D01*
X58216Y143539D02*
Y146453D01*
X64121Y143539D02*
Y149142D01*
X76279Y132516D02*
X77763Y134000D01*
X69239Y132516D02*
X76279D01*
X77663Y138900D02*
X78263Y139500D01*
X75183Y138900D02*
X77663D01*
X72736Y136453D02*
X75183Y138900D01*
X69239Y136453D02*
X72736D01*
X74905Y154059D02*
X79763D01*
X72263Y148500D02*
Y152000D01*
X70763Y147000D02*
X72263Y148500D01*
X67263Y147000D02*
X70763D01*
X66090Y145827D02*
X67263Y147000D01*
X66090Y143539D02*
Y145827D01*
X93263Y154000D02*
X98763Y159500D01*
X85263Y154000D02*
X93263D01*
X90263Y63000D02*
X92263Y65000D01*
X381700Y146000D02*
Y161000D01*
D66*
X-1529Y9400D02*
X4802Y15730D01*
X-76603Y17903D02*
X-68100Y9400D01*
X-1529D01*
X4802Y15730D02*
X6430D01*
X7100Y16400D01*
X-76603Y17903D02*
Y80500D01*
X-65100Y91637D02*
Y99550D01*
X-71737Y85000D02*
X-65100Y91637D01*
X-70200Y75247D02*
Y78200D01*
X-72500Y80500D02*
X-70200Y78200D01*
X-76603Y80500D02*
Y102134D01*
Y80500D02*
X-72500D01*
X-39076Y111240D02*
Y115839D01*
X-39737Y116500D02*
X-39076Y115839D01*
X-62237Y116500D02*
X-39737D01*
X-76603Y102134D02*
X-62237Y116500D01*
X-71737Y102500D02*
X-61587Y112650D01*
X-71737Y95000D02*
Y102500D01*
D67*
X-65100Y99550D02*
X-57300Y107350D01*
X353204Y16841D02*
Y18000D01*
X399200Y49500D02*
Y49763D01*
X362163Y91000D02*
X383924D01*
X396259D01*
X395200Y59276D02*
Y80063D01*
X-48524Y107500D02*
X-28237D01*
X-57300Y112650D02*
X-53387D01*
X-61587D02*
X-57300D01*
X-51977Y111240D02*
X-48524D01*
X-53387Y112650D02*
X-51977Y111240D01*
D68*
X-50000Y100D02*
D03*
X-40000D02*
D03*
X-30000D02*
D03*
X-20000D02*
D03*
X-10000D02*
D03*
X-71000Y45900D02*
D03*
X-71800Y126000D02*
D03*
Y136000D02*
D03*
Y146000D02*
D03*
Y156000D02*
D03*
X108763Y159500D02*
D03*
Y149500D02*
D03*
X98763Y159500D02*
D03*
Y149500D02*
D03*
X88763Y159500D02*
D03*
X-71737Y85000D02*
D03*
X-37300Y159500D02*
D03*
X-27300D02*
D03*
X-17300D02*
D03*
X381200Y161500D02*
D03*
X391200D02*
D03*
X282263Y2000D02*
D03*
X290074D02*
D03*
X352500Y2900D02*
D03*
X344689D02*
D03*
X411700Y64000D02*
D03*
Y54000D02*
D03*
Y31500D02*
D03*
Y21500D02*
D03*
X391700Y146000D02*
D03*
X401700D02*
D03*
X411700D02*
D03*
X150763Y2000D02*
D03*
X158574D02*
D03*
X411700Y134500D02*
D03*
Y124500D02*
D03*
Y102500D02*
D03*
Y92500D02*
D03*
X331700Y156000D02*
D03*
X226263Y151000D02*
D03*
D69*
X0Y100D02*
D03*
X88763Y149500D02*
D03*
X-47300Y159500D02*
D03*
X401200Y161500D02*
D03*
X381700Y146000D02*
D03*
X341700Y156000D02*
D03*
X236263Y151000D02*
D03*
D70*
X-71000Y35900D02*
D03*
X-71800Y116000D02*
D03*
X-71737Y95000D02*
D03*
X411700Y44000D02*
D03*
Y11500D02*
D03*
Y114500D02*
D03*
Y82500D02*
D03*
D71*
X87963Y86400D02*
D03*
Y81400D02*
D03*
Y76400D02*
D03*
Y71400D02*
D03*
Y66400D02*
D03*
X92963D02*
D03*
Y71400D02*
D03*
Y76400D02*
D03*
Y81400D02*
D03*
Y86400D02*
D03*
X-26300Y124500D02*
D03*
X-36300Y134500D02*
D03*
X-46300Y124500D02*
D03*
X-29056Y131587D02*
D03*
X-43623D02*
D03*
D72*
X337220Y78882D02*
D03*
X209720Y74882D02*
D03*
D73*
X345684Y67858D02*
D03*
Y89906D02*
D03*
X218184Y63858D02*
D03*
Y85905D02*
D03*
D74*
X389500Y26100D02*
D03*
X-63300Y14400D02*
D03*
X-40500Y29500D02*
D03*
X18900Y16600D02*
D03*
X63800Y1100D02*
D03*
X120563D02*
D03*
X123600Y55700D02*
D03*
X-7400Y60300D02*
D03*
X-8400Y77700D02*
D03*
X-16144Y88556D02*
D03*
X-11100Y105350D02*
D03*
X-59100Y79000D02*
D03*
X-52600Y73700D02*
D03*
X-10500Y19700D02*
D03*
X-1900Y36700D02*
D03*
X-17700Y96500D02*
D03*
X-54237Y163000D02*
D03*
X8963Y31300D02*
D03*
X91200Y130063D02*
D03*
X81563Y138000D02*
D03*
X102250Y145713D02*
D03*
X27500Y6300D02*
D03*
X3000Y41600D02*
D03*
X128363Y26400D02*
D03*
X185100Y152300D02*
D03*
X390500Y4800D02*
D03*
X389263Y-1600D02*
D03*
X19700Y160800D02*
D03*
X75863Y149100D02*
D03*
X331300Y16200D02*
D03*
X356163Y37000D02*
D03*
Y33100D02*
D03*
X274263Y23300D02*
D03*
X376000Y78900D02*
D03*
X95900Y45600D02*
D03*
X101000Y32500D02*
D03*
X98500Y43000D02*
D03*
X137700Y33600D02*
D03*
X133363Y13700D02*
D03*
X350163Y142600D02*
D03*
X111700Y2863D02*
D03*
X212963Y19800D02*
D03*
X350163Y14000D02*
D03*
X381363Y99700D02*
D03*
X342800Y23400D02*
D03*
X385163Y82100D02*
D03*
X358963Y132400D02*
D03*
X387263Y49000D02*
D03*
X393963Y90900D02*
D03*
X131663Y39400D02*
D03*
X102948Y13800D02*
D03*
X219713Y26500D02*
D03*
X288563Y133100D02*
D03*
X253863Y154000D02*
D03*
X313263Y152600D02*
D03*
X269163Y131500D02*
D03*
X160663Y136400D02*
D03*
X155963Y160100D02*
D03*
X178863Y146200D02*
D03*
X201663Y137900D02*
D03*
X208163Y130700D02*
D03*
X164263Y12200D02*
D03*
X203563Y132100D02*
D03*
X216863Y125500D02*
D03*
X214863Y129600D02*
D03*
X222263Y125000D02*
D03*
X228963Y118400D02*
D03*
X367463Y101500D02*
D03*
X188563Y145100D02*
D03*
X130963Y123900D02*
D03*
X150163Y130000D02*
D03*
X124063Y136700D02*
D03*
X122163Y89900D02*
D03*
X121763Y120100D02*
D03*
X365063Y111500D02*
D03*
X364563Y107100D02*
D03*
X372763Y99000D02*
D03*
X369663Y104400D02*
D03*
X363463Y115100D02*
D03*
X366763Y117500D02*
D03*
X262363Y117700D02*
D03*
X253563Y109800D02*
D03*
X395263Y77900D02*
D03*
X343663Y125500D02*
D03*
X352563Y150000D02*
D03*
X354063Y131700D02*
D03*
X364963Y129700D02*
D03*
X372563Y132800D02*
D03*
X382163Y138700D02*
D03*
X391563Y103600D02*
D03*
X395663Y109900D02*
D03*
X398263Y128200D02*
D03*
X387263Y133300D02*
D03*
X270863Y1900D02*
D03*
X258863Y7800D02*
D03*
X249163Y3400D02*
D03*
X253863Y119700D02*
D03*
X277463Y130400D02*
D03*
X268463Y122500D02*
D03*
X329563Y2800D02*
D03*
X389916Y36900D02*
D03*
X394763Y37600D02*
D03*
X397046Y30800D02*
D03*
X373163Y1000D02*
D03*
X373063Y6100D02*
D03*
X399963Y4100D02*
D03*
X364663Y18400D02*
D03*
X363763Y3100D02*
D03*
X395263Y54800D02*
D03*
X381963Y52000D02*
D03*
X254563Y89700D02*
D03*
X367563Y50100D02*
D03*
X30263Y138000D02*
D03*
X26763Y141500D02*
D03*
X19263Y149374D02*
D03*
X25763Y146500D02*
D03*
X81263Y131500D02*
D03*
X26200Y123063D02*
D03*
X31200D02*
D03*
X21763Y141000D02*
D03*
X30263Y128500D02*
D03*
X25263Y129000D02*
D03*
X19763Y157500D02*
D03*
X363700Y156563D02*
D03*
X60200Y148063D02*
D03*
X-59800Y147063D02*
D03*
X63200Y163063D02*
D03*
X103200Y105063D02*
D03*
X92200Y140063D02*
D03*
X93700Y145563D02*
D03*
X10700Y104063D02*
D03*
X3200Y112563D02*
D03*
X78563Y144523D02*
D03*
X-6237Y144000D02*
D03*
X42763Y142000D02*
D03*
X56263Y148000D02*
D03*
X49763Y149000D02*
D03*
X75763Y145000D02*
D03*
X78263Y134500D02*
D03*
X88263Y128500D02*
D03*
X75263Y121600D02*
D03*
D75*
X379865Y15835D02*
D03*
X375535D02*
D03*
X379865Y20165D02*
D03*
X375535D02*
D03*
D91*
X-70800Y24559D02*
D03*
X-72768Y19441D02*
D03*
X-68831D02*
D03*
X223232Y136941D02*
D03*
X219295D02*
D03*
X221263Y142059D02*
D03*
D92*
X72500Y41500D02*
D03*
Y36500D02*
D03*
Y31500D02*
D03*
Y26500D02*
D03*
Y21500D02*
D03*
Y16500D02*
D03*
Y11500D02*
D03*
Y6500D02*
D03*
X35610Y41500D02*
D03*
Y36500D02*
D03*
Y31500D02*
D03*
Y26500D02*
D03*
Y21500D02*
D03*
Y16500D02*
D03*
Y11500D02*
D03*
Y6500D02*
D03*
D93*
X53117Y156000D02*
D03*
X72409D02*
D03*
D94*
X52310Y143539D02*
D03*
X54279D02*
D03*
X56247D02*
D03*
X58216D02*
D03*
X60184D02*
D03*
X62153D02*
D03*
X64121D02*
D03*
X66090D02*
D03*
Y123461D02*
D03*
X64121D02*
D03*
X62153D02*
D03*
X60184D02*
D03*
X58216D02*
D03*
X56247D02*
D03*
X54279D02*
D03*
X52310D02*
D03*
D95*
X69239Y140390D02*
D03*
Y138421D02*
D03*
Y136453D02*
D03*
Y134484D02*
D03*
Y132516D02*
D03*
Y130547D02*
D03*
Y128579D02*
D03*
Y126610D02*
D03*
X49161D02*
D03*
Y128579D02*
D03*
Y130547D02*
D03*
Y132516D02*
D03*
Y134484D02*
D03*
Y136453D02*
D03*
Y138421D02*
D03*
Y140390D02*
D03*
D96*
X59200Y133500D02*
D03*
D97*
X379700Y117827D02*
D03*
X375200Y36000D02*
D03*
D98*
X372810Y127669D02*
D03*
X374779D02*
D03*
X376747D02*
D03*
X378716D02*
D03*
X380684D02*
D03*
X382653D02*
D03*
X384621D02*
D03*
X386590D02*
D03*
Y107984D02*
D03*
X384621D02*
D03*
X382653D02*
D03*
X380684D02*
D03*
X378716D02*
D03*
X376747D02*
D03*
X374779D02*
D03*
X372810D02*
D03*
X368310Y45842D02*
D03*
X370279D02*
D03*
X372247D02*
D03*
X374216D02*
D03*
X376184D02*
D03*
X378153D02*
D03*
X380121D02*
D03*
X382090D02*
D03*
Y26158D02*
D03*
X380121D02*
D03*
X378153D02*
D03*
X376184D02*
D03*
X374216D02*
D03*
X372247D02*
D03*
X370279D02*
D03*
X368310D02*
D03*
D99*
X389543Y124716D02*
D03*
Y122748D02*
D03*
Y120780D02*
D03*
Y118811D02*
D03*
Y116842D02*
D03*
Y114874D02*
D03*
Y112906D02*
D03*
Y110937D02*
D03*
X369858D02*
D03*
Y112906D02*
D03*
Y114874D02*
D03*
Y116842D02*
D03*
Y118811D02*
D03*
Y120780D02*
D03*
Y122748D02*
D03*
Y124716D02*
D03*
X385043Y42890D02*
D03*
Y40921D02*
D03*
Y38953D02*
D03*
Y36984D02*
D03*
Y35016D02*
D03*
Y33047D02*
D03*
Y31079D02*
D03*
Y29110D02*
D03*
X365357D02*
D03*
Y31079D02*
D03*
Y33047D02*
D03*
Y35016D02*
D03*
Y36984D02*
D03*
Y38953D02*
D03*
Y40921D02*
D03*
Y42890D02*
D03*
D100*
X349641Y114669D02*
D03*
X354759D02*
D03*
Y123331D02*
D03*
X352200D02*
D03*
X349641D02*
D03*
D101*
X-57300Y107350D02*
D03*
Y112650D02*
D03*
X335563Y24750D02*
D03*
Y30050D02*
D03*
D102*
X-27587Y112500D02*
D03*
X-32887D02*
D03*
X213213Y30200D02*
D03*
X207913D02*
D03*
D103*
X111700Y10000D02*
D03*
Y20000D02*
D03*
Y30000D02*
D03*
Y40000D02*
D03*
Y50000D02*
D03*
Y60000D02*
D03*
Y70000D02*
D03*
Y80000D02*
D03*
Y90000D02*
D03*
X161700Y60000D02*
D03*
Y50000D02*
D03*
Y40000D02*
D03*
X188700Y80000D02*
D03*
Y90000D02*
D03*
Y100000D02*
D03*
Y110000D02*
D03*
Y120000D02*
D03*
Y130000D02*
D03*
Y140000D02*
D03*
X111700D02*
D03*
Y130000D02*
D03*
Y120000D02*
D03*
Y110000D02*
D03*
Y100000D02*
D03*
X188700Y70000D02*
D03*
Y60000D02*
D03*
Y50000D02*
D03*
Y40000D02*
D03*
Y30000D02*
D03*
Y20000D02*
D03*
X243200Y10000D02*
D03*
Y20000D02*
D03*
Y30000D02*
D03*
Y40000D02*
D03*
Y50000D02*
D03*
Y60000D02*
D03*
Y70000D02*
D03*
Y80000D02*
D03*
Y90000D02*
D03*
X293200Y60000D02*
D03*
Y50000D02*
D03*
Y40000D02*
D03*
X320200Y80000D02*
D03*
Y90000D02*
D03*
Y100000D02*
D03*
Y110000D02*
D03*
Y120000D02*
D03*
Y130000D02*
D03*
Y140000D02*
D03*
X243200D02*
D03*
Y130000D02*
D03*
Y120000D02*
D03*
Y110000D02*
D03*
Y100000D02*
D03*
X320200Y70000D02*
D03*
Y60000D02*
D03*
Y50000D02*
D03*
Y40000D02*
D03*
Y30000D02*
D03*
Y20000D02*
D03*
D104*
X160700Y149000D02*
D03*
X170700D02*
D03*
X150700D02*
D03*
X140700D02*
D03*
X130700D02*
D03*
X292200D02*
D03*
X302200D02*
D03*
X282200D02*
D03*
X272200D02*
D03*
X262200D02*
D03*
D105*
X188700Y10000D02*
D03*
X320200D02*
D03*
D106*
X4700Y119941D02*
Y141224D01*
M02*
