G04*
G04 #@! TF.GenerationSoftware,Altium Limited,Altium Designer,21.6.4 (81)*
G04*
G04 Layer_Color=32768*
%FSLAX25Y25*%
%MOIN*%
G70*
G04*
G04 #@! TF.SameCoordinates,DF6BEBB8-A918-4F7C-B8FD-E409C10D3AD1*
G04*
G04*
G04 #@! TF.FilePolarity,Positive*
G04*
G01*
G75*
%ADD14C,0.00394*%
%ADD124C,0.00197*%
D14*
X-72768Y22000D02*
X-68831D01*
X-70800Y20031D02*
Y23968D01*
X-75131Y17472D02*
Y26528D01*
X-66469Y17472D02*
Y26528D01*
X-75131D02*
X-66469D01*
X-75131Y17472D02*
X-66469D01*
X59200Y131532D02*
Y135468D01*
X57231Y133500D02*
X61168D01*
X2732Y136500D02*
X6668D01*
X4700Y134531D02*
Y138469D01*
X11787Y128626D02*
Y144374D01*
X-2387Y128626D02*
Y144374D01*
Y128626D02*
X11787D01*
X-2387Y144374D02*
X11787D01*
X379700Y115858D02*
Y119795D01*
X377731Y117827D02*
X381668D01*
X393232Y64000D02*
X397168D01*
X395200Y62032D02*
Y65969D01*
X388113Y56126D02*
Y71874D01*
X402287Y56126D02*
Y71874D01*
X388113D02*
X402287D01*
X388113Y56126D02*
X402287D01*
X350232Y119000D02*
X354169D01*
X352200Y117032D02*
Y120968D01*
X117263Y11594D02*
Y15531D01*
X115295Y13563D02*
X119231D01*
X109389Y6476D02*
X125137D01*
X109389Y20650D02*
X125137D01*
Y6476D02*
Y20650D01*
X109389Y6476D02*
Y20650D01*
X-43800Y105532D02*
Y109468D01*
X-45768Y107500D02*
X-41831D01*
X379200Y89031D02*
Y92968D01*
X377232Y91000D02*
X381169D01*
X371326Y83913D02*
X387074D01*
X371326Y98087D02*
X387074D01*
X371326Y83913D02*
Y98087D01*
X387074Y83913D02*
Y98087D01*
X375200Y34032D02*
Y37969D01*
X373232Y36000D02*
X377168D01*
X375731Y18000D02*
X379668D01*
X377700Y16032D02*
Y19969D01*
X247137Y21516D02*
X251074D01*
X249106Y19547D02*
Y23484D01*
X242019Y13642D02*
Y29390D01*
X256192Y13642D02*
Y29390D01*
X242019Y13642D02*
X256192D01*
X242019Y29390D02*
X256192D01*
X216932Y134972D02*
X225594D01*
X216932Y144028D02*
X225594D01*
Y134972D02*
Y144028D01*
X216932Y134972D02*
Y144028D01*
X221263Y137531D02*
Y141469D01*
X219295Y139500D02*
X223232D01*
X358200Y140532D02*
Y144468D01*
X356231Y142500D02*
X360169D01*
X350326Y135413D02*
X366074D01*
X350326Y149587D02*
X366074D01*
X350326Y135413D02*
Y149587D01*
X366074Y135413D02*
Y149587D01*
D124*
X45421Y147280D02*
X72979D01*
X45421Y119720D02*
X72979D01*
X45421D02*
Y147280D01*
X72979Y119720D02*
Y147280D01*
X367495Y130032D02*
X391905D01*
X367495Y105622D02*
X391905D01*
X367495D02*
Y130032D01*
X391905Y105622D02*
Y130032D01*
X356826Y112504D02*
Y125496D01*
X347574Y112504D02*
Y125496D01*
Y112504D02*
X356826D01*
X347574Y125496D02*
X356826D01*
X-51674Y114587D02*
X-35926D01*
X-51674Y100413D02*
X-35926D01*
Y114587D01*
X-51674Y100413D02*
Y114587D01*
X362995Y48205D02*
X387405D01*
X362995Y23795D02*
X387405D01*
X362995D02*
Y48205D01*
X387405Y23795D02*
Y48205D01*
X388035Y7665D02*
Y28335D01*
X367365Y7665D02*
Y28335D01*
Y7665D02*
X388035D01*
X367365Y28335D02*
X388035D01*
M02*
